<?xml version="1.0" standalone="no"?>
<!DOCTYPE svg PUBLIC "-//W3C//DTD SVG 1.1//EN" "http://www.w3.org/Graphics/SVG/1.1/DTD/svg11.dtd" >
<svg xmlns="http://www.w3.org/2000/svg">
<metadata>Generated by IcoMoon</metadata>
<defs>
<font id="medid" horiz-adv-x="1024">
<font-face units-per-em="1024" ascent="960" descent="-64" />
<missing-glyph horiz-adv-x="1024" />
<glyph unicode="&#x20;" horiz-adv-x="512" d="" />
<glyph unicode="&#xe900;" glyph-name="active-notification" d="M224.854 579.841c0 158.9 129.1 288 288 288 158.473 0 288-129.527 288-288v-123.308c0-9.165 2.074-22.583 6.007-36.924 3.883-14.161 8.9-26.752 13.47-34.743l48.922-81.254c38.639-64.397 7.753-148.279-63.428-171.844-190.46-63.625-395.959-63.616-586.417 0.017l-0.119 0.038c-35.943 12.164-62.898 37.316-74.95 69.867-12.066 32.585-7.962 69.265 11.709 101.956l49 81.382c0.011 0.017 0.021 0.034 0.032 0.055 4.672 7.855 9.79 20.395 13.74 34.624 3.962 14.272 6.034 27.669 6.034 36.826v123.308zM512.853 803.841c-123.553 0-224-100.447-224-224v-123.308c0-16.866-3.474-36.322-8.366-53.943-4.895-17.634-11.922-35.998-20.468-50.334l-0.072-0.119-49.062-81.485c-0.002-0.004 0.001 0 0 0-10.618-17.651-11.211-34.099-6.531-46.737 4.69-12.668 15.904-24.836 35.393-31.45 177.295-59.221 368.554-59.213 545.842 0.021l0.098 0.030c32.034 10.59 46.353 48.691 28.698 78.144-0.004 0.009 0.004-0.009 0 0l-49.361 81.988c-8.196 14.204-15.061 32.444-19.887 50.035-4.813 17.557-8.286 36.992-8.286 53.85v123.308c0 123.127-100.873 224-224 224zM404.127 835.142c17.043 43.489 59.357 74.084 108.727 74.084 49.374 0 91.686-30.595 108.727-74.084 4.45-11.352 2.061-24.247-6.161-33.251s-20.847-12.555-32.555-9.155c-11.836 3.436-23.782 6.029-35.887 7.497l-0.119 0.015c-36.881 4.61-71.731 1.874-104.004-7.508-11.712-3.404-24.339 0.143-32.563 9.149s-10.615 21.901-6.165 33.255zM416.853 146.773c0-26.133 10.871-50.522 28.173-67.827 17.306-17.301 41.694-28.173 67.827-28.173 52.727 0 96 43.273 96 96h64c0-88.073-71.927-160-160-160-43.84 0-84.305 18.142-113.081 46.921-28.777 28.774-46.919 69.239-46.919 113.079h64z" />
<glyph unicode="&#xe901;" glyph-name="add" d="M213.333 448c0 23.565 19.103 42.667 42.667 42.667h512c23.565 0 42.667-19.102 42.667-42.667s-19.102-42.667-42.667-42.667h-512c-23.564 0-42.667 19.102-42.667 42.667zM512 746.667c23.565 0 42.667-19.103 42.667-42.667v-512c0-23.565-19.102-42.667-42.667-42.667s-42.667 19.102-42.667 42.667v512c0 23.564 19.102 42.667 42.667 42.667z" />
<glyph unicode="&#xe902;" glyph-name="add-doctor" d="M494.498 842.667c-100.146 0-181.332-81.186-181.332-181.333s81.186-181.333 181.332-181.333c100.151 0 181.333 81.186 181.333 181.333s-81.182 181.333-181.333 181.333zM249.167 661.333c0 135.494 109.84 245.333 245.332 245.333 135.497 0 245.333-109.839 245.333-245.333 0-135.492-109.837-245.333-245.333-245.333-135.492 0-245.332 109.841-245.332 245.333zM96 21.333c0 188.625 185.050 330.667 398.507 330.667s398.507-142.042 398.507-330.667c0-17.673-14.327-32-32-32s-32 14.327-32 32c0 141.615-143.484 266.667-334.507 266.667-191.024 0-334.507-125.052-334.507-266.667 0-17.673-14.327-32-32-32s-32 14.327-32 32zM512 224c17.673 0 32-14.327 32-32v-170.667c0-17.673-14.327-32-32-32s-32 14.327-32 32v170.667c0 17.673 14.327 32 32 32zM394.667 106.667c0 17.673 14.327 32 32 32h170.667c17.673 0 32-14.327 32-32s-14.327-32-32-32h-170.667c-17.673 0-32 14.327-32 32z" />
<glyph unicode="&#xe903;" glyph-name="add-file" d="M514.56 501.333c17.673 0 32-14.327 32-32v-213.333c0-17.673-14.327-32-32-32s-32 14.327-32 32v213.333c0 17.673 14.327 32 32 32zM373.333 362.667c0 17.673 14.327 32 32 32h213.333c17.673 0 32-14.327 32-32s-14.327-32-32-32h-213.333c-17.673 0-32 14.327-32 32zM150.627 809.373c-21.824-21.824-33.294-62.477-33.294-148.039v-426.667c0-85.564 11.471-126.217 33.294-148.041s62.477-33.293 148.039-33.293h426.667c85.564 0 126.217 11.469 148.041 33.293s33.293 62.477 33.293 148.041v256c0 85.562-11.469 126.216-33.293 148.039s-62.477 33.294-148.041 33.294h-128c-24.222 0-43.874 3.568-60.604 13.68-14.938 9.028-24.666 21.887-31.804 31.325-0.457 0.603-0.9 1.193-1.335 1.766l-0.124 0.162-64 85.333c-12.924 17.232-18.939 24.567-27.199 29.529-7.503 4.507-20.372 8.871-49.601 8.871h-64c-85.562 0-126.216-11.471-148.039-33.294zM105.373 854.627c42.176 42.176 108.189 52.039 193.294 52.039h64c34.77 0 60.941-5.023 82.56-18.009 20.006-12.020 32.956-29.315 44.036-44.116 0.469-0.63 0.939-1.255 1.404-1.875l63.94-85.255c8.909-11.72 11.712-14.836 15.223-16.959 2.684-1.621 9.058-4.453 27.503-4.453h128c85.103 0 151.117-9.863 193.293-52.039s52.041-108.189 52.041-193.294v-256c0-85.103-9.865-151.117-52.041-193.293s-108.19-52.041-193.293-52.041h-426.667c-85.105 0-151.118 9.865-193.294 52.041s-52.039 108.19-52.039 193.293v426.667c0 85.105 9.863 151.118 52.039 193.294z" />
<glyph unicode="&#xe904;" glyph-name="add-heal" d="M423.63 906.673c1.048-0.003 2.061-0.006 3.037-0.006h170.667c0.977 0 1.988 0.003 3.038 0.006 18.901 0.054 49.101 0.14 73.378-16.047 29.197-19.465 40.917-54.4 40.917-101.292 0-0.976 0.004-1.989 0.004-3.037 0.055-18.9 0.141-49.1-16.047-73.38-19.465-29.197-54.4-40.916-101.291-40.916h-170.667c-0.976 0-1.989-0.003-3.037-0.006-18.9-0.054-49.1-0.14-73.38 16.047-29.197 19.465-40.916 54.4-40.916 101.292s11.719 81.827 40.916 101.292c24.28 16.186 54.48 16.101 73.38 16.047zM385.751 837.375c-2.803-1.869-12.417-9.6-12.417-48.041s9.614-46.173 12.417-48.041c6.374-4.249 16.82-5.292 40.916-5.292h170.667c38.443 0 46.174 9.614 48.043 12.417 4.25 6.374 5.291 16.82 5.291 40.916 0 38.441-9.613 46.172-12.416 48.041-6.374 4.249-16.819 5.292-40.917 5.292h-170.667c-24.096 0-34.542-1.043-40.916-5.292zM373.287 790.208c0.954-17.647-12.579-32.727-30.226-33.68-68.529-3.704-111.238-18.103-138.169-47.255-27.287-29.538-44.892-81.253-44.892-175.939v-256.001c0-84.766 11.15-137.86 40.082-170.927 28.008-32.009 80.010-53.073 183.918-53.073h256c103.906 0 155.908 21.065 183.919 53.073 28.932 33.067 40.081 86.161 40.081 170.927v256.001c0 94.921-17.613 146.612-44.877 176.083-26.914 29.091-69.602 43.404-138.185 47.111-17.647 0.954-31.181 16.033-30.225 33.68s16.034 31.18 33.681 30.226c73.498-3.973 137.476-19.741 181.709-67.556 43.883-47.435 61.897-119.478 61.897-219.544v-256.001c0-85.897-10.185-160.802-55.919-213.073-46.656-53.321-122.654-74.927-232.081-74.927h-256c-109.426 0-185.424 21.606-232.082 74.927-45.734 52.271-55.918 127.177-55.918 213.073v256.001c0 99.874 18.022 171.892 61.882 219.368 44.216 47.862 108.173 63.757 181.725 67.732 17.647 0.954 32.727-12.579 33.681-30.226zM514.564 501.333c17.673 0 32-14.327 32-32v-213.333c0-17.673-14.327-32-32-32-17.677 0-32 14.327-32 32v213.333c0 17.673 14.323 32 32 32zM373.333 362.667c0 17.673 14.327 32 32 32h213.333c17.673 0 32-14.327 32-32s-14.327-32-32-32h-213.333c-17.673 0-32 14.327-32 32z" />
<glyph unicode="&#xe905;" glyph-name="add-lab" d="M898.816 106.125c-27.392-49.574-85.133-74.125-155.153-74.125h-477.015c-69.848 0-127.542 24.572-154.978 74.091-27.444 49.536-17.665 111.484 19.493 170.748l1.058 1.69 205.677 252.092c4.747 8.658 7.256 18.128 7.256 27.034v274.347c0 17.673 14.327 32 32 32s32-14.327 32-32v-274.347c0-22.027-6.504-43.405-17.285-61.564l-1.216-2.048-206.287-252.838c-29.221-47.433-28.495-82.833-16.715-104.094 11.924-21.521 42.124-41.109 98.996-41.109h477.015c57.126 0 87.275 19.61 99.136 41.075 11.738 21.239 12.399 56.644-16.858 104.124l-206.285 252.843-1.216 2.048c-10.782 18.159-17.284 39.537-17.284 61.564v274.347c0 17.673 14.327 32 32 32s32-14.327 32-32v-274.347c0-8.906 2.509-18.375 7.253-27.034l205.679-252.092 1.058-1.69c37.129-59.213 47.053-121.156 19.669-170.714zM512 394.667c17.673 0 32-14.327 32-32v-170.667c0-17.673-14.327-32-32-32s-32 14.327-32 32v170.667c0 17.673 14.327 32 32 32zM394.667 277.333c0 17.673 14.327 32 32 32h170.667c17.673 0 32-14.327 32-32s-14.327-32-32-32h-170.667c-17.673 0-32 14.327-32 32z" />
<glyph unicode="&#xe906;" glyph-name="add-note" d="M512 565.333c17.673 0 32-14.327 32-32v-256c0-17.673-14.327-32-32-32s-32 14.327-32 32v256c0 17.673 14.327 32 32 32zM352 405.333c0 17.673 14.327 32 32 32h256c17.673 0 32-14.327 32-32s-14.327-32-32-32h-256c-17.673 0-32 14.327-32 32zM341.333 906.667c17.673 0 32-14.327 32-32v-128c0-17.673-14.327-32-32-32s-32 14.327-32 32v128c0 17.673 14.327 32 32 32zM682.667 906.667c17.673 0 32-14.327 32-32v-128c0-17.673-14.327-32-32-32s-32 14.327-32 32v128c0 17.673 14.327 32 32 32zM679.27 863.999c0.614 0.004 1.225-0.009 1.839-0.040 73.83-3.738 138.005-20.061 182.374-70.057 43.622-49.157 61.931-124.073 62.665-229.035l1.835-269.69v-0.051c0.469-90.377-9.135-168.393-53.82-223.151-46.020-56.393-121.865-79.906-231.441-80.879l-255.443-1.745c-109.604-0.747-185.826 21.713-232.587 77.5-45.4 54.165-55.94 132.045-56.416 222.217 0 0.017 0 0.034 0 0.051l-2.254 270.071c-0.736 105.015 16.687 180.198 59.705 229.952 43.741 50.59 107.671 67.796 181.232 72.471 0.603 0.038 1.207 0.060 1.811 0.064l340.5 2.324zM340.126 797.683c-67.336-4.389-109.355-19.6-135.985-50.4-27.469-31.77-44.82-87.219-44.12-187.623 0-0.007 0 0.008 0 0l2.255-270.204c0.468-89.446 11.919-146.24 41.465-181.491 28.192-33.634 79.892-55.317 183.102-54.613l255.312 1.741c0.004 0-0.009 0 0 0 103.228 0.922 154.641 23.3 182.421 57.348 29.116 35.678 39.872 92.642 39.411 182.336 0 0.004 0-0.004 0 0l-1.835 269.643c0 0.002 0-0.002 0 0-0.704 100.466-18.705 155.638-46.537 187.003-26.97 30.391-69.154 45.036-136.841 48.573l-338.65-2.312z" />
<glyph unicode="&#xe907;" glyph-name="add-receipt" d="M734.34 364.518c19.708 19.682 51.644 19.665 71.33-0.047 19.682-19.708 19.665-51.644-0.047-71.33l-138.807-138.633c-19.712-19.682-51.648-19.661-71.33 0.047-19.686 19.712-19.665 51.648 0.047 71.33l138.807 138.633zM550.306 271.172c-44.719-44.663-44.766-117.124-0.107-161.843 44.663-44.719 117.12-44.766 161.843-0.102l138.807 138.633c44.719 44.659 44.766 117.12 0.102 161.839s-117.12 44.766-161.839 0.102l-138.807-138.628zM747.281 167.518l-138.633 138.807 45.286 45.227 138.628-138.807-45.282-45.227zM330.62 105.792c-0.954-17.647-16.033-31.181-33.681-30.225-73.499 3.972-137.475 19.738-181.71 67.554-43.883 47.437-61.897 119.479-61.897 219.546v255.999c0 85.899 10.184 160.805 55.918 213.072 46.659 53.324 122.656 74.928 232.082 74.928h256c109.427 0 185.425-21.604 232.081-74.928 45.734-52.268 55.919-127.173 55.919-213.072 0-17.673-14.327-32-32-32s-32 14.327-32 32c0 84.768-11.149 137.862-40.081 170.928-28.011 32.009-80.013 53.072-183.919 53.072h-256c-103.907 0-155.91-21.063-183.918-53.072-28.933-33.066-40.082-86.16-40.082-170.928v-255.999c0-94.921 17.613-146.611 44.877-176.085 26.912-29.090 69.603-43.401 138.184-47.108 17.647-0.956 31.18-16.034 30.226-33.681zM450.564 650.667c17.673 0 32-14.327 32-32v-213.333c0-17.673-14.327-32-32-32-17.677 0-32.002 14.327-32.002 32v213.333c0 17.673 14.325 32 32.002 32zM309.333 512c0 17.673 14.327 32 32 32h213.333c17.673 0 32-14.327 32-32s-14.327-32-32-32h-213.333c-17.673 0-32 14.327-32 32z" />
<glyph unicode="&#xe908;" glyph-name="archive" d="M192 555.948c17.673 0 32-14.327 32-32.001v-374.613c0-42.099 5.816-63.194 16.082-74.927 9.341-10.675 29.344-21.073 79.918-21.073h384c50.573 0 70.575 10.398 79.919 21.073 10.266 11.733 16.081 32.828 16.081 74.927v374.613c0 17.674 14.327 32.001 32 32.001s32-14.327 32-32.001v-374.613c0-43.23-4.851-86.135-31.919-117.069-27.989-31.991-71.987-42.931-128.081-42.931h-384c-56.093 0-100.090 10.94-128.082 42.931-27.067 30.933-31.918 73.839-31.918 117.069v374.613c0 17.674 14.327 32.001 32 32.001zM139.961 820.039c-13.216-13.216-22.627-35.639-22.627-73.373v-85.333c0-37.734 9.412-60.157 22.627-73.373s35.639-22.627 73.373-22.627h597.333c37.734 0 60.156 9.412 73.374 22.627 13.214 13.216 22.626 35.639 22.626 73.373v85.333c0 37.734-9.412 60.157-22.626 73.373-13.218 13.216-35.639 22.627-73.374 22.627h-597.333c-37.734 0-60.157-9.412-73.373-22.627zM94.706 865.294c29.451 29.451 71.028 41.373 118.627 41.373h597.333c47.599 0 89.178-11.921 118.626-41.373 29.453-29.451 41.374-71.028 41.374-118.627v-85.333c0-47.599-11.921-89.176-41.374-118.627-29.449-29.452-71.027-41.373-118.626-41.373h-597.333c-47.599 0-89.176 11.921-118.627 41.373s-41.373 71.028-41.373 118.627v85.333c0 47.599 11.921 89.176 41.373 118.627zM402.333 362.667c0 17.673 14.327 32 32 32h155.307c17.673 0 32-14.327 32-32s-14.327-32-32-32h-155.307c-17.674 0-32 14.327-32 32z" />
<glyph unicode="&#xe909;" glyph-name="arrow-down" d="M230.386 366.946c12.497 12.497 32.758 12.497 45.255 0l236.359-236.356 236.361 236.356c12.497 12.497 32.755 12.497 45.252 0s12.497-32.755 0-45.252l-258.987-258.987c-5.999-6.003-14.14-9.374-22.626-9.374s-16.627 3.371-22.626 9.374l-258.988 258.987c-12.497 12.497-12.497 32.755 0 45.252zM512 842.667c17.673 0 32-14.327 32-32v-718.080c0-17.673-14.327-32-32-32s-32 14.327-32 32v718.080c0 17.673 14.327 32 32 32z" />
<glyph unicode="&#xe90a;" glyph-name="arrow-left" d="M430.946 729.615c12.497-12.497 12.497-32.758 0-45.255l-236.358-236.36 236.358-236.361c12.497-12.497 12.497-32.755 0-45.252-12.495-12.497-32.757-12.497-45.254 0l-258.987 258.987c-6.001 5.999-9.373 14.14-9.373 22.626s3.372 16.627 9.373 22.626l258.987 258.988c12.497 12.497 32.758 12.497 45.254 0zM124.587 448c0 17.673 14.327 32 32 32h718.080c17.673 0 32-14.327 32-32s-14.327-32-32-32h-718.080c-17.673 0-32 14.327-32 32z" />
<glyph unicode="&#xe90b;" glyph-name="arrow-right" d="M906.667 448c0-8.486-3.371-16.627-9.374-22.626l-258.987-258.987c-12.497-12.497-32.755-12.497-45.252 0s-12.497 32.755 0 45.252l236.356 236.361-236.356 236.36c-12.497 12.497-12.497 32.758 0 45.255s32.755 12.497 45.252 0l258.987-258.988c6.003-5.999 9.374-14.14 9.374-22.626zM899.413 448c0-17.673-14.327-32-32-32h-718.080c-17.673 0-32 14.327-32 32s14.327 32 32 32h718.080c17.673 0 32-14.327 32-32z" />
<glyph unicode="&#xe90c;" glyph-name="arrow-up" d="M512 842.667c8.486 0 16.627-3.372 22.626-9.373l258.987-258.987c12.497-12.497 12.497-32.758 0-45.254s-32.755-12.497-45.252 0l-236.361 236.358-236.359-236.358c-12.497-12.497-32.758-12.497-45.255 0-12.497 12.495-12.497 32.757 0 45.254l258.988 258.987c5.999 6.001 14.14 9.373 22.626 9.373zM512 835.414c17.673 0 32-14.327 32-32v-718.081c0-17.673-14.327-32-32-32s-32 14.327-32 32v718.081c0 17.673 14.327 32 32 32z" />
<glyph unicode="&#xe90d;" glyph-name="birthday" d="M340.48 714.667c-42.855 0-71.253-30.238-71.253-60.587v-120.747c0-17.673-14.327-32-32-32s-32 14.327-32 32v120.747c0 72.051 63.762 124.587 135.253 124.587h343.467c71.155 0 134.827-52.617 134.827-124.587v-120.747c0-17.673-14.327-32-32-32s-32 14.327-32 32v120.747c0 30.43-28.489 60.587-70.827 60.587h-343.467zM274.773 501.333c-64.074 0-110.080-45.922-110.080-96v-384c0-17.673-14.327-32-32-32s-32 14.327-32 32v384c0 91.575 81.14 160 174.080 160h474.027c92.941 0 174.080-68.425 174.080-160v-384c0-17.673-14.327-32-32-32s-32 14.327-32 32v384c0 50.078-46.007 96-110.080 96h-474.027zM53.333 21.333c0 17.673 14.327 32 32 32h853.333c17.673 0 32-14.327 32-32s-14.327-32-32-32h-853.333c-17.673 0-32 14.327-32 32zM118.625 364.386c0.477 17.664 15.186 31.599 32.853 31.121l15.594-0.418c49.024-0.794 88.075-40.657 88.075-89.596v-14.080c0-14.054 11.427-25.6 25.6-25.6 14.055 0 25.6 11.426 25.6 25.6v13.227c0 49.092 39.773 89.6 89.6 89.6 49.092 0 89.6-39.774 89.6-89.6v-13.227c0-14.054 11.426-25.6 25.6-25.6 14.054 0 25.6 11.426 25.6 25.6v13.227c0 49.092 39.774 89.6 89.6 89.6 49.092 0 89.6-39.774 89.6-89.6v-13.227c0-14.054 11.426-25.6 25.6-25.6 14.054 0 25.6 11.426 25.6 25.6v13.227c0 49.092 39.774 89.6 89.6 89.6h19.2c17.673 0 32-14.327 32-32s-14.327-32-32-32h-19.2c-14.174 0-25.6-11.546-25.6-25.6v-13.227c0-49.826-40.508-89.6-89.6-89.6-49.826 0-89.6 40.508-89.6 89.6v13.227c0 14.174-11.546 25.6-25.6 25.6-14.174 0-25.6-11.546-25.6-25.6v-13.227c0-49.826-40.508-89.6-89.6-89.6-49.826 0-89.6 40.508-89.6 89.6v13.227c0 14.174-11.545 25.6-25.6 25.6-14.173 0-25.6-11.546-25.6-25.6v-13.227c0-49.826-40.508-89.6-89.6-89.6-49.827 0-89.6 40.508-89.6 89.6v14.080c0 14.131-11.168 25.412-25.179 25.604l-0.432 0.004v0.004l-15.787 0.427c-17.667 0.478-31.601 15.185-31.124 32.853zM341.333 864c17.673 0 32-14.327 32-32v-85.333c0-17.673-14.327-32-32-32s-32 14.327-32 32v85.333c0 17.673 14.327 32 32 32zM682.667 864c17.673 0 32-14.327 32-32v-85.333c0-17.673-14.327-32-32-32s-32 14.327-32 32v85.333c0 17.673 14.327 32 32 32zM512 906.667c17.673 0 32-14.327 32-32v-128c0-17.673-14.327-32-32-32s-32 14.327-32 32v128c0 17.673 14.327 32 32 32z" />
<glyph unicode="&#xe90e;" glyph-name="block" d="M328.92 779.552c-30.24-37.542-40.92-92.187-40.92-160.886v-85.333c0-17.673-14.327-32-32-32s-32 14.327-32 32v85.333c0 72.528 10.653 145.882 55.080 201.034 45.63 56.646 120.777 86.966 232.92 86.966 112.145 0 187.29-30.319 232.922-86.966 44.425-55.152 55.078-128.506 55.078-201.034v-85.333c0-17.673-14.327-32-32-32s-32 14.327-32 32v85.333c0 68.699-10.679 123.344-40.922 160.886-29.035 36.047-81.89 63.114-183.078 63.114-101.19 0-154.043-27.067-183.080-63.114zM512 352c-41.237 0-74.667-33.429-74.667-74.667s33.429-74.667 74.667-74.667c41.237 0 74.667 33.429 74.667 74.667s-33.429 74.667-74.667 74.667zM373.333 277.333c0 76.582 62.084 138.667 138.667 138.667s138.667-62.084 138.667-138.667c0-76.582-62.084-138.667-138.667-138.667s-138.667 62.084-138.667 138.667zM150.627 468.041c-21.824-21.824-33.294-62.477-33.294-148.041v-85.333c0-85.564 11.471-126.217 33.294-148.041s62.477-33.293 148.039-33.293h426.667c85.564 0 126.217 11.469 148.041 33.293s33.293 62.477 33.293 148.041v85.333c0 85.564-11.469 126.217-33.293 148.041s-62.477 33.293-148.041 33.293h-426.667c-85.562 0-126.216-11.469-148.039-33.293zM105.373 513.293c42.176 42.178 108.189 52.041 193.294 52.041h426.667c85.103 0 151.117-9.863 193.293-52.041 42.176-42.176 52.041-108.19 52.041-193.293v-85.333c0-85.103-9.865-151.117-52.041-193.293s-108.19-52.041-193.293-52.041h-426.667c-85.105 0-151.118 9.865-193.294 52.041s-52.039 108.19-52.039 193.293v85.333c0 85.103 9.863 151.117 52.039 193.293z" />
<glyph unicode="&#xe90f;" glyph-name="block-notification" d="M224.857 579.841c0 158.9 129.1 288 288 288 158.473 0 288-129.527 288-288 0-17.673-14.327-32-32-32s-32 14.327-32 32c0 123.127-100.873 224-224 224-123.554 0-224-100.447-224-224v-123.308c0-16.866-3.474-36.322-8.366-53.943-4.895-17.634-11.922-35.998-20.468-50.334-9.050-15.181-28.692-20.151-43.872-11.102s-20.15 28.693-11.1 43.874c4.681 7.851 9.813 20.416 13.772 34.679 3.962 14.272 6.034 27.669 6.034 36.826v123.308zM776.243 396.058c15.142 9.114 34.807 4.228 43.921-10.91l49.092-81.536c38.639-64.397 7.753-148.279-63.428-171.844-190.46-63.625-395.959-63.616-586.418 0.017-16.762 5.598-25.811 23.727-20.21 40.491s23.729 25.809 40.491 20.211c177.312-59.243 368.595-59.243 545.905 0l0.098 0.030c32.030 10.59 46.349 48.691 28.698 78.144-0.004 0.009 0.004-0.009 0 0l-49.054 81.476c-9.118 15.138-4.233 34.803 10.906 43.921zM959.945 696.091c10.402-14.287 7.253-34.302-7.031-44.705l-872.736-635.509c-14.287-10.402-34.302-7.253-44.705 7.031s-7.255 34.304 7.032 44.706l872.735 635.508c14.289 10.403 34.304 7.255 44.706-7.031zM404.123 835.142c17.043 43.489 59.357 74.084 108.726 74.084 49.374 0 91.686-30.595 108.727-74.084 4.45-11.352 2.061-24.247-6.161-33.251s-20.843-12.555-32.555-9.155c-11.836 3.436-23.782 6.029-35.887 7.497l-0.119 0.015c-36.881 4.61-71.731 1.874-104.004-7.508-11.712-3.404-24.338 0.143-32.562 9.149s-10.615 21.901-6.165 33.255zM416.854 146.773c0-26.133 10.871-50.522 28.172-67.827 17.306-17.301 41.694-28.173 67.827-28.173 52.727 0 96 43.273 96 96h64c0-88.073-71.927-160-160-160-43.84 0-84.301 18.142-113.080 46.921-28.778 28.774-46.919 69.239-46.919 113.079h64z" />
<glyph unicode="&#xe910;" glyph-name="calendar" d="M341.333 906.667c17.673 0 32-14.327 32-32v-128c0-17.673-14.327-32-32-32s-32 14.327-32 32v128c0 17.673 14.327 32 32 32zM682.667 906.667c17.673 0 32-14.327 32-32v-128c0-17.673-14.327-32-32-32s-32 14.327-32 32v128c0 17.673 14.327 32 32 32zM117.333 572.161c0 17.673 14.327 32 32 32h725.333c17.673 0 32-14.327 32-32s-14.327-32-32-32h-725.333c-17.673 0-32 14.327-32 32zM202.116 730.225c-27.338-29.44-42.116-73.798-42.116-132.892v-362.667c0-59.093 14.778-103.45 42.116-132.894 26.939-29.009 70.65-48.439 139.217-48.439h341.333c68.565 0 112.277 19.43 139.217 48.439 27.337 29.444 42.116 73.801 42.116 132.894v362.667c0 59.095-14.78 103.452-42.116 132.892-26.94 29.012-70.652 48.441-139.217 48.441h-341.333c-68.567 0-112.278-19.43-139.217-48.441zM155.217 773.775c42.394 45.655 105.35 68.892 186.116 68.892h341.333c80.768 0 143.723-23.237 186.116-68.892 41.997-45.226 59.217-107.536 59.217-176.441v-362.667c0-68.907-17.22-131.217-59.217-176.439-42.394-45.658-105.348-68.894-186.116-68.894h-341.333c-80.766 0-143.722 23.236-186.116 68.894-41.996 45.222-59.217 107.533-59.217 176.439v362.667c0 68.905 17.222 131.215 59.217 176.441zM626.974 375.467c0 23.565 19.102 42.667 42.667 42.667h0.384c23.565 0 42.667-19.102 42.667-42.667s-19.102-42.667-42.667-42.667h-0.384c-23.565 0-42.667 19.102-42.667 42.667zM626.974 247.467c0 23.565 19.102 42.667 42.667 42.667h0.384c23.565 0 42.667-19.102 42.667-42.667s-19.102-42.667-42.667-42.667h-0.384c-23.565 0-42.667 19.102-42.667 42.667zM469.141 375.467c0 23.565 19.102 42.667 42.667 42.667h0.384c23.565 0 42.667-19.102 42.667-42.667s-19.102-42.667-42.667-42.667h-0.384c-23.565 0-42.667 19.102-42.667 42.667zM469.141 247.467c0 23.565 19.102 42.667 42.667 42.667h0.384c23.565 0 42.667-19.102 42.667-42.667s-19.102-42.667-42.667-42.667h-0.384c-23.565 0-42.667 19.102-42.667 42.667zM311.224 375.467c0 23.565 19.103 42.667 42.667 42.667h0.383c23.564 0 42.667-19.102 42.667-42.667s-19.102-42.667-42.667-42.667h-0.383c-23.564 0-42.667 19.102-42.667 42.667zM311.224 247.467c0 23.565 19.103 42.667 42.667 42.667h0.383c23.564 0 42.667-19.102 42.667-42.667s-19.102-42.667-42.667-42.667h-0.383c-23.564 0-42.667 19.102-42.667 42.667z" />
<glyph unicode="&#xe911;" glyph-name="cash" d="M234.667 452.267c17.673 0 32-14.327 32-32 0-109.333 103.024-196.267 245.333-196.267s245.333 86.933 245.333 196.267c0 17.673 14.327 32 32 32s32-14.327 32-32v-157.867c0-154.854-142.844-273.067-309.333-273.067s-309.333 118.212-309.333 273.067v157.867c0 17.673 14.327 32 32 32zM266.716 258.244c2.583-109.649 107.17-204.911 245.284-204.911 138.116 0 242.701 95.262 245.286 204.911-57.724-62.059-148.224-98.244-245.286-98.244s-187.564 36.186-245.284 98.244zM512 842.667c-69.342 0-130.912-24.256-175.224-62.935l-0.015-0.013c-43.907-38.277-70.095-90.005-70.095-146.119 0-32.831 8.986-62.912 24.745-88.7l0.038-0.063c38.655-63.583 120.842-107.504 220.55-107.504s181.897 43.921 220.548 107.504l0.038 0.063c15.761 25.788 24.747 55.869 24.747 88.7 0 56.049-26.133 107.798-70.101 146.553-44.352 38.29-105.941 62.514-175.232 62.514zM294.705 827.961c56.381 49.207 133.041 78.706 217.295 78.706s160.862-29.496 217.195-78.191l0.218-0.189v-0.001c55.804-49.128 91.921-117.661 91.921-194.685 0-44.809-12.339-86.397-34.116-122.044-52.659-86.583-158.191-138.223-275.217-138.223-117.022 0-222.555 51.635-275.215 138.219-21.777 35.648-34.119 77.237-34.119 122.048 0 76.999 36.098 145.586 92.023 194.348zM512 842.667c-139.856 0-245.333-97.682-245.333-209.067v-213.333c0-109.333 103.024-196.267 245.333-196.267s245.333 86.933 245.333 196.267v213.333c0 56.049-26.133 107.798-70.101 146.553-44.352 38.29-105.941 62.514-175.232 62.514zM202.667 633.6c0 154.855 142.843 273.067 309.333 273.067 84.254 0 160.862-29.496 217.195-78.191l0.218-0.189v-0.001c55.804-49.128 91.921-117.661 91.921-194.685v-213.333c0-156.907-145.297-260.267-309.333-260.267-164.038 0-309.333 103.36-309.333 260.267v213.333z" />
<glyph unicode="&#xe912;" glyph-name="cashback" d="M105.373 769.294c42.176 42.176 108.189 52.039 193.294 52.039h426.667c85.103 0 151.117-9.863 193.293-52.039s52.041-108.189 52.041-193.294v-42.667c0-17.673-14.327-32-32-32-41.207 0-74.667-33.459-74.667-74.667s33.459-74.667 74.667-74.667c17.673 0 32-14.327 32-32 0-85.103-9.865-151.117-52.041-193.293s-108.19-52.041-193.293-52.041h-426.667c-85.105 0-151.118 9.865-193.294 52.041s-52.039 108.19-52.039 193.293v21.333c0 17.673 14.327 32 32 32 41.207 0 74.667 33.459 74.667 74.667s-33.46 74.667-74.667 74.667c-17.673 0-32 14.327-32 32v21.333c0 85.105 9.863 151.118 52.039 193.294zM117.359 582.946c61.126-14.465 106.641-69.414 106.641-134.946s-45.515-120.482-106.641-134.946c0.611-80.832 12.044-119.868 33.268-141.094 21.824-21.824 62.477-33.293 148.039-33.293h426.667c85.564 0 126.217 11.469 148.041 33.293 19.273 19.277 30.473 53.244 32.823 119.868-60.902 14.622-106.197 69.466-106.197 134.839 0 65.54 45.53 120.497 106.667 134.952v14.381c0 85.562-11.469 126.216-33.293 148.039s-62.477 33.294-148.041 33.294h-426.667c-85.562 0-126.216-11.471-148.039-33.294-21.225-21.225-32.657-60.259-33.268-141.093zM662.626 609.294c12.497-12.497 12.497-32.758 0-45.255l-255.999-255.999c-12.497-12.497-32.758-12.497-45.255 0s-12.497 32.755 0 45.252l256.001 256.001c12.497 12.497 32.755 12.497 45.252 0zM597.099 330.667c0 23.565 19.102 42.667 42.667 42.667h0.384c23.565 0 42.667-19.102 42.667-42.667s-19.102-42.667-42.667-42.667h-0.384c-23.565 0-42.667 19.102-42.667 42.667zM341.099 565.333c0 23.564 19.102 42.667 42.667 42.667h0.383c23.564 0 42.667-19.103 42.667-42.667s-19.103-42.667-42.667-42.667h-0.383c-23.564 0-42.667 19.103-42.667 42.667z" />
<glyph unicode="&#xe913;" glyph-name="check" d="M768.717 842.667c-29.833-0.074-54.050-24.325-54.050-53.76v-266.24h113.92c26.854 0 45.666 8.363 57.694 20.387 12.023 12.027 20.386 30.837 20.386 57.693v103.253c0 37.987-15.497 72.683-40.623 98.196-24.836 24.794-59.422 40.081-97.327 40.47zM650.667 788.907c0 65.24 53.363 117.76 118.187 117.76h0.294v-0.001c55.006-0.505 105.66-22.725 142.225-59.291l0.158-0.156c36.267-36.772 59.136-87.378 59.136-143.217v-103.253c0-40.558-12.971-76.787-39.134-102.946-26.159-26.163-62.391-39.134-102.946-39.134h-145.92c-17.673 0-32 14.327-32 32v298.24zM98.447 845.608c34.338 39.763 87.002 61.059 157.553 61.059h512c17.673 0 32-14.327 32-32s-14.327-32-32-32c-29.261 0-53.333-24.073-53.333-53.333v-725.333c0-61.513-70.251-96.273-119.343-59.827l-0.098 0.077-73.297 54.865c-3.678 2.829-9.562 2.662-13.329-1.101l-71.676-71.68c-29.139-29.137-76.709-29.137-105.845 0l-0.068 0.068-70.758 71.185c-0.006 0.004 0.007-0.009 0 0-4.234 4.215-10.325 4.42-14.493 1.293l-72.838-54.519c-0.029-0.021-0.057-0.043-0.086-0.064-49.416-37.338-119.503-1.882-119.503 59.703v640c0 51.322 11.534 102.723 45.114 141.608zM663.539 842.667h-407.539c-57.449 0-90.118-16.891-109.114-38.888-19.753-22.874-29.553-56.808-29.553-99.779v-640c0-9.203 10.043-13.854 16.942-8.627l0.148 0.111 72.937 54.596c29.959 22.468 71.663 19.247 98.148-7.241l70.825-71.253c0.006-0.004-0.006 0.009 0 0 4.145-4.122 11.197-4.134 15.334 0l71.68 71.68c26.044 26.044 67.823 29.333 97.412 6.724l72.717-54.43c0.013-0.009 0.026-0.017 0.034-0.026 7.228-5.325 17.156 0.021 17.156 8.465v725.333c0 19.181 4.646 37.315 12.873 53.333zM224 576c0 17.673 14.327 32 32 32h256c17.673 0 32-14.327 32-32s-14.327-32-32-32h-256c-17.673 0-32 14.327-32 32zM256 405.333c0 17.673 14.327 32 32 32h192c17.673 0 32-14.327 32-32s-14.327-32-32-32h-192c-17.673 0-32 14.327-32 32z" />
<glyph unicode="&#xe914;" glyph-name="checked" d="M53.333 448c0 252.34 206.327 458.667 458.667 458.667s458.667-206.327 458.667-458.667c0-252.339-206.327-458.667-458.667-458.667s-458.667 206.327-458.667 458.667zM512 842.667c-216.994 0-394.667-177.673-394.667-394.667s177.673-394.667 394.667-394.667c216.994 0 394.667 177.673 394.667 394.667s-177.673 394.667-394.667 394.667zM715.981 591.355c12.484-12.508 12.467-32.769-0.038-45.255l-241.92-241.494c-12.501-12.476-32.747-12.467-45.235 0.021l-120.748 120.747c-12.497 12.497-12.497 32.759 0 45.252 12.497 12.497 32.758 12.497 45.255 0l98.141-98.138 219.29 218.906c12.51 12.486 32.772 12.468 45.257-0.040z" />
<glyph unicode="&#xe915;" glyph-name="chevron-down" d="M151.453 600.76c12.497 12.497 32.758 12.497 45.255 0l278.185-278.188c20.356-20.356 53.858-20.356 74.214 0l278.187 278.188c12.497 12.497 32.755 12.497 45.252 0s12.497-32.758 0-45.255l-278.187-278.185c-45.35-45.35-119.369-45.35-164.719 0l-278.188 278.185c-12.497 12.497-12.497 32.758 0 45.255z" />
<glyph unicode="&#xe916;" glyph-name="chevron-right" d="M357.533 808.547c12.497 12.497 32.758 12.497 45.255 0l278.185-278.187c45.35-45.35 45.35-119.373 0-164.719l-278.185-278.187c-12.497-12.497-32.758-12.497-45.255 0-12.497 12.493-12.497 32.755 0 45.252l278.188 278.187c20.356 20.356 20.356 53.854 0 74.214l-278.188 278.185c-12.497 12.497-12.497 32.758 0 45.255z" />
<glyph unicode="&#xe917;" glyph-name="clear" d="M339.761 843.898l-0.023 0.038c-33.551 55.283-106.153 72.737-161.265 39.318-55.312-33.54-72.784-106.163-39.357-161.288l49.381-81.035-6.999-4.262c-15.095-9.192-19.88-28.88-10.688-43.974l80.665-132.467c-43.727-60.224-50.627-140.659-17.28-208.149l87.435-178.278c36.388-74.415 125.675-100.804 196.489-57.173l23.548 14.319c1.549 0.636 3.072 1.399 4.548 2.3 1.463 0.892 2.833 1.886 4.1 2.961l101.504 61.722c1.229 0.55 2.441 1.186 3.622 1.903 1.169 0.713 2.278 1.489 3.324 2.321l103.134 62.716c0.939 0.452 1.86 0.951 2.769 1.506 0.896 0.546 1.754 1.126 2.577 1.745l25.114 15.271c71.347 43.17 88.414 134.234 39.471 200.772l-118.251 159.658c-43.883 59.24-115.87 90.083-187.678 81.013l-81.779 134.294c-9.19 15.095-28.88 19.88-43.974 10.688l-11.116-6.769-49.27 80.853zM211.657 828.53c25.089 15.214 58.28 7.085 73.379-17.815l49.332-80.955-91.208-55.541-49.335 80.959c-15.192 25.085-7.060 58.258 17.832 73.353zM703.962 204.54l-54.596-33.199-53.636 88.094c-9.19 15.095-28.877 19.883-43.972 10.688-15.095-9.19-19.883-28.877-10.692-43.972l53.619-88.060-54.618-33.212-53.564 87.97c-9.19 15.095-28.877 19.878-43.972 10.688s-19.881-28.877-10.692-43.972l53.542-87.94-0.593-0.363-0.183-0.111c-38.387-23.693-85.583-9.937-105.501 30.805l-87.513 178.441c-30.904 62.502-11.405 140.659 52.381 179.494l134.827 81.922c63.714 38.784 141.542 20.358 183.351-36.085l118.157-159.531c26.957-36.698 17.579-84.676-21.103-108.066l-0.068-0.043-0.486-0.294-53.692 88.179c-9.19 15.095-28.877 19.883-43.972 10.692s-19.883-28.877-10.692-43.972l53.67-88.154zM406.102 698.509l55.479-91.104-163.988-99.86-55.471 91.095c2.592 0.769 5.128 1.881 7.546 3.352l145.92 88.747c2.5 1.521 4.756 3.362 6.723 5.46l3.793 2.31z" />
<glyph unicode="&#xe918;" glyph-name="continius" d="M491.831 615.154c-93.376 75.794-207.62 75.794-300.998 0-13.722-11.138-33.874-9.043-45.012 4.679s-9.043 33.874 4.679 45.012c116.883 94.872 264.784 94.872 381.669 0 93.376-75.794 207.62-75.794 300.996 0 13.722 11.138 33.877 9.043 45.013-4.679 11.14-13.722 9.045-33.874-4.676-45.012-116.885-94.873-264.785-94.873-381.67 0zM491.831 231.155c-93.376 75.793-207.62 75.793-300.998 0-13.722-11.14-33.874-9.045-45.012 4.676s-9.043 33.877 4.679 45.013c116.883 94.874 264.784 94.874 381.669 0 93.376-75.793 207.62-75.793 300.996 0 13.722 11.14 33.877 9.045 45.013-4.676 11.14-13.722 9.045-33.877-4.676-45.013-116.885-94.874-264.785-94.874-381.67 0z" />
<glyph unicode="&#xe919;" glyph-name="current-day" d="M512 842.667c-217.968 0-394.667-176.698-394.667-394.667 0-217.967 176.698-394.667 394.667-394.667 217.967 0 394.667 176.7 394.667 394.667 0 217.968-176.7 394.667-394.667 394.667zM53.333 448c0 253.315 205.352 458.667 458.667 458.667s458.667-205.352 458.667-458.667c0-253.316-205.35-458.667-458.667-458.667-253.315 0-458.667 205.35-458.667 458.667zM421.974 743.255c17.672 0 32-14.327 32-32v-85.333c0-17.673-14.327-32-32-32s-32 14.327-32 32v85.333c0 17.673 14.327 32 32 32zM602.027 743.255c17.673 0 32-14.327 32-32v-85.333c0-17.673-14.327-32-32-32s-32 14.327-32 32v85.333c0 17.673 14.327 32 32 32zM289.28 527.36c0 17.673 14.327 32 32 32h381.44c17.673 0 32-14.327 32-32s-14.327-32-32-32h-381.44c-17.673 0-32 14.327-32 32zM345.887 603.262c-23.081-24.34-36.553-58.835-36.553-98.515v-128c0-39.68 13.472-74.172 36.553-98.513 22.833-24.081 56.874-40.154 102.113-40.154h128c45.239 0 79.279 16.073 102.114 40.154 23.083 24.341 36.553 58.833 36.553 98.513v128c0 39.68-13.47 74.175-36.553 98.515-22.835 24.079-56.875 40.152-102.114 40.152h-128c-45.239 0-79.28-16.074-102.113-40.152zM299.447 647.3c35.834 37.788 87.126 60.114 148.553 60.114h128c61.427 0 112.721-22.327 148.553-60.114 35.584-37.527 54.114-88.365 54.114-142.553v-128c0-54.187-18.53-105.024-54.114-142.554-35.831-37.786-87.125-60.113-148.553-60.113h-128c-61.427 0-112.72 22.327-148.553 60.113-35.585 37.53-54.113 88.367-54.113 142.554v128c0 54.188 18.528 105.027 54.113 142.553z" />
<glyph unicode="&#xe91a;" glyph-name="day" d="M341.333 906.667c17.673 0 32-14.327 32-32v-128c0-17.673-14.327-32-32-32s-32 14.327-32 32v128c0 17.673 14.327 32 32 32zM682.667 906.667c17.673 0 32-14.327 32-32v-128c0-17.673-14.327-32-32-32s-32 14.327-32 32v128c0 17.673 14.327 32 32 32zM339.511 842.615c0.607 0.035 1.215 0.052 1.823 0.052h341.333c0.576 0 1.152-0.015 1.728-0.047 73.719-3.985 137.818-20.273 182.016-69.441 43.631-48.538 61.589-122.233 61.589-224.913v-263.68c0-88.354-10.167-164.983-55.612-218.479-46.601-54.852-122.735-77.201-232.388-77.201h-256c-109.655 0-185.787 22.349-232.388 77.201-45.446 53.495-55.612 130.125-55.612 218.479v263.68c0 102.682 17.957 176.281 61.603 224.769 44.184 49.086 108.257 65.377 181.908 69.579zM342.258 778.667c-67.904-3.981-110.243-18.626-137.088-48.448-27.501-30.552-45.17-84.1-45.17-181.952v-263.68c0-87.433 11.167-142.643 40.388-177.041 28.066-33.041 79.934-54.639 183.612-54.639h256c103.68 0 155.546 21.598 183.612 54.639 29.222 34.398 40.388 89.609 40.388 177.041v263.68c0 97.854-17.668 151.519-45.184 182.127-26.837 29.854-69.163 44.502-137.024 48.273h-339.534zM106.667 209.067c0 17.673 14.327 32 32 32h746.667c17.673 0 32-14.327 32-32s-14.327-32-32-32h-746.667c-17.673 0-32 14.327-32 32z" />
<glyph unicode="&#xe91b;" glyph-name="day-1" d="M512 170.667c153.169 0 277.333 124.164 277.333 277.333 0 153.167-124.164 277.333-277.333 277.333-153.167 0-277.333-124.166-277.333-277.333 0-153.169 124.166-277.333 277.333-277.333zM512 917.333c23.565 0 42.667-19.103 42.667-42.667v-3.413c0-23.564-19.102-42.667-42.667-42.667s-42.667 19.103-42.667 42.667v3.413c0 23.564 19.102 42.667 42.667 42.667zM177.19 782.81c16.663 16.662 43.677 16.662 60.34 0l5.547-5.547c16.662-16.663 16.662-43.677 0-60.34s-43.677-16.662-60.34 0l-5.547 5.547c-16.662 16.663-16.662 43.677 0 60.34zM846.81 782.81c16.661-16.663 16.661-43.677 0-60.34l-5.547-5.547c-16.661-16.662-43.678-16.662-60.339 0s-16.661 43.677 0 60.34l5.547 5.547c16.661 16.662 43.678 16.662 60.339 0zM42.667 448c0 23.565 19.103 42.667 42.667 42.667h3.413c23.564 0 42.667-19.102 42.667-42.667s-19.103-42.667-42.667-42.667h-3.413c-23.564 0-42.667 19.102-42.667 42.667zM892.587 448c0 23.565 19.102 42.667 42.667 42.667h3.413c23.565 0 42.667-19.102 42.667-42.667s-19.102-42.667-42.667-42.667h-3.413c-23.565 0-42.667 19.102-42.667 42.667zM243.077 179.076c16.662-16.661 16.662-43.678 0-60.339l-5.547-5.547c-16.663-16.661-43.677-16.661-60.34 0s-16.662 43.678 0 60.339l5.547 5.547c16.663 16.661 43.677 16.661 60.34 0zM780.924 179.076c16.661 16.661 43.678 16.661 60.339 0l5.547-5.547c16.661-16.661 16.661-43.678 0-60.339s-43.678-16.661-60.339 0l-5.547 5.547c-16.661 16.661-16.661 43.678 0 60.339zM512 67.413c23.565 0 42.667-19.102 42.667-42.667v-3.413c0-23.565-19.102-42.667-42.667-42.667s-42.667 19.102-42.667 42.667v3.413c0 23.565 19.102 42.667 42.667 42.667z" />
<glyph unicode="&#xe91c;" glyph-name="discount" d="M537.114 831.116c-13.956 13.956-37.218 13.957-51.174 0 0 0 0 0 0 0l-64.852-64.854c-9.385-9.385-21.58-16.434-32.879-21.119-11.282-4.678-24.828-8.306-37.962-8.306h-91.733c-19.874 0-36.267-16.393-36.267-36.266v-91.734c0-13.135-3.629-26.681-8.307-37.963-4.685-11.299-11.734-23.493-21.119-32.878 0 0 0 0 0 0l-64.853-64.853c-13.956-13.956-13.957-37.218 0-51.174l64.665-64.666c9.578-9.306 16.649-21.513 21.306-32.747 4.729-11.405 8.307-25.033 8.307-38.281v-91.729c0-19.878 16.396-36.271 36.267-36.271h91.733c13.135 0 26.68-3.631 37.962-8.307 11.299-4.685 23.494-11.733 32.879-21.12l64.852-64.853c13.956-13.956 37.218-13.956 51.174 0l64.853 64.853c9.387 9.387 21.577 16.435 32.879 21.12 11.281 4.676 24.823 8.307 37.961 8.307h91.733c19.87 0 36.267 16.393 36.267 36.271v91.729c0 13.133 3.631 26.679 8.307 37.961 4.685 11.302 11.733 23.492 21.12 32.879l64.853 64.853c13.956 13.956 13.956 37.218 0 51.174l-64.853 64.852c-9.387 9.385-16.435 21.578-21.12 32.878-4.676 11.282-8.307 24.828-8.307 37.963v91.734c0 19.874-16.393 36.266-36.267 36.266h-91.733c-13.137 0-26.679 3.628-37.961 8.306-11.302 4.685-23.492 11.734-32.879 21.119l-64.853 64.854zM440.687 876.371c38.95 38.95 102.729 38.95 141.679 0l64.858-64.854c1.707-1.708 5.939-4.686 12.134-7.253 6.208-2.575 11.221-3.426 13.449-3.426h91.733c55.219 0 100.267-45.046 100.267-100.266v-91.734c0-2.225 0.849-7.239 3.426-13.45 2.569-6.194 5.547-10.427 7.253-12.136l64.853-64.855c38.95-38.95 38.95-102.733 0-141.679l-64.853-64.858c-1.707-1.707-4.685-5.939-7.253-12.134-2.577-6.212-3.426-11.226-3.426-13.449v-91.729c0-55.219-45.043-100.271-100.267-100.271h-91.733c-2.227 0-7.241-0.853-13.449-3.426-6.195-2.569-10.428-5.547-12.134-7.253l-64.858-64.858c-38.95-38.95-102.729-38.95-141.679 0l-64.855 64.858c-1.708 1.707-5.941 4.685-12.135 7.253-6.211 2.573-11.226 3.426-13.451 3.426h-91.733c-55.222 0-100.267 45.052-100.267 100.271v91.729c0 2.534-0.902 7.68-3.427 13.769-2.554 6.161-5.423 10.048-6.806 11.375l-0.448 0.439-64.852 64.858c0 0 0 0 0 0-38.95 38.946-38.95 102.729 0 141.679 0 0 0 0 0 0l64.853 64.855c1.708 1.708 4.687 5.942 7.255 12.136 2.575 6.211 3.427 11.226 3.427 13.45v91.734c0 55.221 45.048 100.266 100.267 100.266h91.733c2.225 0 7.24 0.851 13.451 3.426 6.193 2.568 10.426 5.545 12.135 7.253 0 0 0 0 0 0l64.855 64.855zM662.626 598.627c12.497-12.497 12.497-32.758 0-45.255l-255.999-255.999c-12.497-12.497-32.758-12.497-45.255 0s-12.497 32.755 0 45.252l256.001 256.001c12.497 12.497 32.755 12.497 45.252 0zM575.765 341.333c0 23.565 19.102 42.667 42.667 42.667h0.384c23.565 0 42.667-19.102 42.667-42.667s-19.102-42.667-42.667-42.667h-0.384c-23.565 0-42.667 19.102-42.667 42.667zM362.432 554.667c0 23.564 19.102 42.667 42.667 42.667h0.383c23.565 0 42.667-19.103 42.667-42.667s-19.102-42.667-42.667-42.667h-0.383c-23.564 0-42.667 19.102-42.667 42.667z" />
<glyph unicode="&#xe91d;" glyph-name="exchange" d="M624.529 910.525c17.673 0 32-14.327 32-32v-224.464c0-17.673-14.327-32-32-32s-32 14.327-32 32v192.464h-192.463c-17.673 0-32 14.327-32 32s14.327 32 32 32h224.463zM647.155 901.151c12.497-12.497 12.497-32.758 0-45.255l-543.058-543.060c-12.497-12.493-32.758-12.493-45.255 0-12.497 12.497-12.497 32.759 0 45.257l543.057 543.058c12.497 12.497 32.759 12.497 45.257 0zM399.459 273.937c17.673 0 31.999-14.327 31.999-32l0.004-192.465h192.461c17.673 0 32-14.323 32-32 0-17.673-14.327-32-32-32h-224.462c-17.673 0-32 14.327-32 32l-0.002 224.465c0 17.673 14.327 32 32 32zM965.146 583.159c12.497-12.497 12.497-32.758 0-45.255l-543.057-543.058c-12.497-12.497-32.758-12.497-45.255 0s-12.497 32.759 0 45.257l543.059 543.057c12.497 12.497 32.755 12.497 45.252 0z" />
<glyph unicode="&#xe91e;" glyph-name="favourite" d="M466.351 795.869c18.163 36.125 36.523 43.491 45.594 43.491 9.015 0 27.264-7.274 45.218-43.371l75.072-150.143c7.996-16.258 21.359-30.156 35.166-40.342 13.862-10.228 31.083-18.857 48.849-21.818l136.107-22.613c0.004-0.001-0.009 0.001 0 0 37.986-6.335 50.453-21.307 53.338-30.278 2.863-8.9 1.515-28.224-25.843-55.398l-105.89-105.89c-13.756-13.756-22.959-32.149-28.032-49.873-5.077-17.741-6.976-38.14-2.756-56.981l30.34-131.17c11.324-49.143-0.090-66.829-5.751-70.959-5.713-4.164-26.189-9.583-69.675 16.094-0.009 0.009 0.009-0.004 0 0l-127.543 75.507c-0.004 0 0.004-0.004 0 0-17.66 10.462-38.921 14.703-58.385 14.703-19.49 0-40.742-4.254-58.492-14.579l-127.811-75.661c-43.131-25.6-63.626-20.156-69.446-15.91-5.795 4.228-17.207 22.025-5.925 70.78l30.341 131.2c4.223 18.837 2.324 39.236-2.754 56.977-5.074 17.724-14.275 36.117-28.030 49.873l-105.813 105.813c-27.179 27.179-28.611 46.558-25.744 55.531 2.856 8.947 15.221 23.895 53.177 30.225 0.005 0.001-0.006-0.001 0 0l136.203 22.629c17.583 2.986 34.671 11.648 48.422 21.844 13.711 10.166 27.062 24.051 35.055 40.3l75.010 150.021c0.004 0.008-0.004-0.008 0 0zM614.451 824.518c-22.579 45.382-57.877 78.841-102.507 78.841-44.578 0-79.983-33.402-102.776-78.749l-75.24-150.481c-2.254-4.602-7.642-11.151-15.761-17.171-8.091-5.999-15.941-9.283-20.973-10.149-0.015-0.003-0.030-0.005-0.045-0.008l-135.994-22.595c-49.071-8.178-90.282-32.059-103.639-73.886-13.347-41.798 6.341-85.138 41.456-120.253l105.813-105.813c4.165-4.169 8.83-12.011 11.756-22.234 2.908-10.159 3.154-19.375 1.851-25.284-0.006-0.030-0.012-0.055-0.018-0.085l-30.244-130.769c0 0 0-0.004 0 0-12.61-54.498-8.236-108.604 30.554-136.905 38.767-28.288 91.658-16.021 139.833 12.57l127.336 75.379c0.026 0.017 0.051 0.030 0.077 0.047 5.73 3.307 15.164 5.854 26.227 5.854 11.149 0 20.39-2.581 25.766-5.769l127.586-75.529c48.235-28.493 101.193-40.981 139.955-12.723 38.818 28.301 42.978 82.505 30.409 137.045l-30.251 130.799c-0.004 0.030-0.013 0.055-0.017 0.085-1.301 5.909-1.058 15.125 1.852 25.284 2.927 10.223 7.59 18.065 11.755 22.234l105.737 105.732c0.017 0.017 0.030 0.030 0.043 0.047 35.337 35.11 55.087 78.49 41.634 120.345-13.436 41.801-54.729 65.652-103.765 73.826l-136.107 22.613c0.004-0.001-0.004 0.001 0 0zM614.451 824.518c-0.004 0.009 0.004-0.009 0 0z" />
<glyph unicode="&#xe91f;" glyph-name="notification-fill" d="M800.853 579.841c0 122.526-77.427 227.748-185.801 269.18-19.921 35.98-58.266 60.206-102.199 60.206-43.874 0-82.172-24.159-102.118-60.057-108.587-41.265-185.883-146.376-185.883-269.328v-123.308c0-9.156-2.072-22.554-6.034-36.826-3.95-14.229-9.068-26.769-13.74-34.624l-0.032-0.055-49-81.382c-19.671-32.691-23.776-69.372-11.709-101.956 12.052-32.55 39.007-57.702 74.95-69.867l0.119-0.038c46.447-15.518 93.787-27.251 141.587-35.204 7.977-23.991 21.449-45.559 38.779-62.886 28.776-28.779 69.241-46.921 113.081-46.921 70.588 0 130.803 46.204 151.932 109.892 47.612 7.945 94.771 19.644 141.039 35.102 71.181 23.565 102.067 107.447 63.428 171.844l-48.922 81.254c-4.57 7.991-9.587 20.582-13.47 34.743-3.934 14.34-6.007 27.759-6.007 36.924v123.308zM587.887 87.125c-49.958-4.083-100.16-4.092-150.118-0.034 2.27-2.859 4.693-5.581 7.258-8.145 17.301-17.301 41.694-28.173 67.827-28.173 30.251 0 57.395 14.246 75.034 36.352z" />
<glyph unicode="&#xe920;" glyph-name="short-diagnose" d="M423.63 906.673c1.048-0.003 2.061-0.006 3.037-0.006h170.667c0.977 0 1.988 0.003 3.038 0.006 18.901 0.054 49.101 0.14 73.378-16.047 29.197-19.465 40.917-54.4 40.917-101.292 0-0.976 0.004-1.989 0.004-3.037 0.055-18.9 0.141-49.1-16.047-73.38-19.465-29.197-54.4-40.916-101.291-40.916h-170.667c-0.976 0-1.989-0.003-3.037-0.006-18.9-0.054-49.1-0.14-73.38 16.047-29.197 19.465-40.916 54.4-40.916 101.292s11.719 81.827 40.916 101.292c24.28 16.186 54.48 16.101 73.38 16.047zM385.751 837.375c-2.803-1.869-12.417-9.6-12.417-48.041s9.614-46.173 12.417-48.041c6.374-4.249 16.82-5.292 40.916-5.292h170.667c38.443 0 46.174 9.614 48.043 12.417 4.25 6.374 5.291 16.82 5.291 40.916 0 38.441-9.613 46.172-12.416 48.041-6.374 4.249-16.819 5.292-40.917 5.292h-170.667c-24.096 0-34.542-1.043-40.916-5.292zM365.859 800.918c0.881-18.118-11.611-33.6-27.901-34.58-63.257-3.803-84.584-18.586-109.443-48.516-25.189-30.326-41.438-83.421-41.438-180.635v-262.833c0-87.031 10.292-141.542 36.999-175.492 25.853-32.862 73.856-54.49 169.77-54.49h236.306c95.915 0 143.919 21.628 169.771 54.49 26.709 33.95 37.001 88.461 37.001 175.492v262.833c0 97.455-16.26 150.525-41.425 180.783-24.841 29.868-46.153 44.562-109.457 48.368-16.29 0.98-28.783 16.461-27.9 34.58 0.879 18.118 14.801 32.012 31.087 31.033 67.849-4.079 108.804-20.268 149.636-69.359 40.508-48.702 57.135-122.668 57.135-225.404v-262.833c0-88.192-9.399-165.099-51.618-218.761-43.068-54.75-113.22-76.928-214.229-76.928h-236.306c-101.009 0-171.16 22.178-214.23 76.928-42.216 53.662-51.616 130.569-51.616 218.761v262.833c0 102.54 16.636 176.48 57.122 225.223 40.815 49.14 81.754 65.458 149.647 69.54 16.29 0.979 30.209-12.915 31.090-31.033zM661.333 245.333c0-17.673-14.327-32-32-32h-298.667c-17.673 0-32 14.327-32 32s14.327 32 32 32h298.667c17.673 0 32-14.327 32-32zM298.667 416c0 17.673 14.327 32 32 32h170.667c17.673 0 32-14.327 32-32s-14.327-32-32-32h-170.667c-17.673 0-32 14.327-32 32z" />
<glyph unicode="&#xe921;" glyph-name="filter-off" d="M466.957 902.417c-0.388 0.007-0.772 0.007-1.156 0h-235.405c-65.62 0-117.333-53.758-117.333-121.6v-98.133c0-18.911 6.012-39.537 14-57.356 8.052-17.961 19.547-36.277 33.462-50.292l160.852-169.318c6.050-7.821 12.755-19.469 17.975-32.521 5.511-13.773 8.378-26.645 8.378-36.113v-226.133c0-95.189 105.877-146.039 181.039-99.789l59.904 38.507c17.212 10.496 30.161 27.533 38.647 43.853 8.666 16.666 14.81 36.663 14.81 55.829v183.467c0 12.143 3.14 27.102 9.19 41.37 6.114 14.409 14.153 25.673 21.961 32.179 0.239 0.201 0.474 0.401 0.704 0.606l183.471 162.133c0.491 0.436 0.969 0.886 1.434 1.351 13.961 13.961 26.633 33.395 35.84 53.652 9.169 20.172 16.201 44.003 16.201 67.108v93.867c0 64.606-52.727 117.333-117.333 117.333h-326.639zM291.611 529.971l192.485 308.445h309.5c29.261 0 53.333-24.073 53.333-53.333v-93.867c0-11.028-3.635-25.597-10.466-40.625-6.601-14.525-14.972-26.806-22.208-34.252l-182.332-161.129c-17.596-14.805-30.763-35.388-39.518-56.030-8.883-20.932-14.276-44.378-14.276-66.364v-183.467c0-6.434-2.389-16.303-7.59-26.304-5.303-10.197-11.392-16.461-15.275-18.79-0.282-0.171-0.563-0.341-0.841-0.521l-59.435-38.212c-35.75-21.756-83.26 4.177-83.26 45.427v226.133c0 20.399-5.666 41.66-12.955 59.883-7.358 18.398-17.369 36.181-28.19 49.707-0.567 0.708-1.163 1.391-1.788 2.052l-77.185 81.246zM246.080 577.898l-39.99 42.080c-7.279 7.279-14.872 18.691-20.627 31.529-5.879 13.114-8.4 24.489-8.4 31.177v98.133c0 34.558 25.087 57.6 53.333 57.6h178.261l-162.577-260.519z" />
<glyph unicode="&#xe922;" glyph-name="filter-on" d="M138.672 686.326c-0.525 51.164 39.152 92.34 89.172 92.34h379.734c49.246 0 89.6-40.355 89.6-89.6v-63.146c0-17.609-5.355-35.164-11.887-49.518-6.583-14.476-15.65-28.509-25.737-38.903-0.572-0.591-1.169-1.158-1.783-1.703l-124.181-109.625c-3.712-3.153-8.29-9.297-11.959-17.958-3.614-8.533-5.359-17.199-5.359-23.787v-123.733c0-14.959-4.791-30.063-11.191-42.351-6.272-12.049-16.085-25.212-29.662-33.719l-40.542-26.295c-57.353-35.196-137.912 3.482-137.912 76.339v152.32c0 4.553-1.475 11.878-4.921 20.514-3.139 7.868-7.082 14.741-10.438 19.213l-107.864 113.765c-10.412 10.515-18.816 23.856-24.662 36.812-5.786 12.823-10.406 28.233-10.406 43.083v65.952zM227.844 714.667c-13.056 0-25.387-10.759-25.175-27.76l0.005-0.4-0.003-66.133c0-2.644 1.141-8.78 4.741-16.758 3.478-7.707 7.971-14.274 11.913-18.215l0.594-0.61 109.227-115.201c0.643-0.678 1.257-1.382 1.838-2.116 8.016-10.095 15.234-23.053 20.501-36.254 5.193-13.018 9.478-28.732 9.478-44.233v-152.32c0-19.204 22.458-32.538 40.157-21.961l40.308 26.146c0.747 0.461 3.827 3.17 6.886 9.045 2.987 5.739 3.955 10.688 3.955 12.796v123.733c0 16.452 4.015 33.6 10.428 48.747 6.319 14.921 15.957 30.221 29.18 41.549l122.462 108.106c3.887 4.241 8.755 11.409 12.698 20.076 4.241 9.327 6.14 17.585 6.14 23.016v63.146c0 13.901-11.699 25.6-25.6 25.6h-379.734zM616.951 84.041c-12.497 12.497-12.497 32.755 0 45.252l84.041 84.041-84.041 84.041c-12.497 12.497-12.497 32.755 0 45.252s32.755 12.497 45.252 0l84.041-84.036 84.041 84.036c12.497 12.497 32.755 12.497 45.252 0s12.497-32.755 0-45.252l-84.036-84.041 84.036-84.041c12.497-12.497 12.497-32.755 0-45.252s-32.755-12.497-45.252 0l-84.041 84.036-84.041-84.036c-12.497-12.497-32.755-12.497-45.252 0z" />
<glyph unicode="&#xe923;" glyph-name="language" d="M721.92 377.6c12.109 0 23.181-6.835 28.608-17.664l91.307-182.182c7.919-15.804 1.532-35.029-14.272-42.948-15.799-7.919-35.025-1.527-42.944 14.272l-62.699 125.103-62.699-125.103c-7.919-15.799-27.145-22.191-42.944-14.272s-22.191 27.145-14.272 42.948l91.307 182.182c5.427 10.829 16.499 17.664 28.608 17.664zM615.253 195.84c0 17.673 14.327 32 32 32h150.187c17.673 0 32-14.327 32-32s-14.327-32-32-32h-150.187c-17.673 0-32 14.327-32 32zM721.92 422.827c-102.178 0-184.747-82.91-184.747-184.747 0-102.178 82.914-184.747 184.747-184.747 102.221 0 184.747 82.526 184.747 184.747 0 102.178-82.91 184.747-184.747 184.747zM473.173 238.080c0 137.101 111.138 248.747 248.747 248.747 137.097 0 248.747-111.138 248.747-248.747 0-137.566-111.181-248.747-248.747-248.747-137.101 0-248.747 111.138-248.747 248.747zM140.039 819.958c-13.274-13.242-22.706-35.73-22.706-73.718v-167.252c0-39.559 9.576-62.584 22.762-75.802 13.050-13.082 35.316-22.242 73.458-21.487l0.633 0.009 168.026-0.009c39.463-0.956 62.075 8.269 74.948 21.141 12.868 12.873 22.097 35.485 21.141 74.948l-0.009 0.773v167.252l0.009 0.792c0.947 38.118-8.145 60.329-21.141 73.328-13.154 13.152-36.148 22.735-75.721 22.735h-167.253c-38.241 0-60.858-9.453-74.147-22.709zM94.841 865.268c29.591 29.517 71.401 41.398 119.346 41.398h167.253c48.747 0 91.247-11.752 120.973-41.48 29.798-29.797 40.998-71.859 39.881-119.758v-166.493c1.109-48.692-9.95-91.422-39.881-121.349-29.926-29.931-72.657-40.994-121.349-39.881h-166.569c-47.91-0.896-89.947 10.445-119.71 40.282-29.693 29.769-41.451 72.239-41.451 120.999v167.252c0 47.772 11.902 89.497 41.507 119.029zM179.2 710.401c0 17.673 14.327 32 32 32h173.227c17.673 0 32-14.327 32-32s-14.327-32-32-32h-173.227c-17.673 0-32 14.327-32 32zM297.387 771.414c17.673 0 32-14.327 32-32v-29.013c0-17.673-14.327-32-32-32s-32 14.327-32 32v29.013c0 17.673 14.327 32 32 32zM340.907 742.825c17.673 0 32-14.327 32-32 0-91.191-71.653-167.252-162.134-167.252-17.673 0-32 14.327-32 32s14.327 32 32 32c52.88 0 98.134 45.11 98.134 103.252 0 17.673 14.327 32 32 32zM286.426 644.367c14.193 10.531 34.236 7.561 44.766-6.632 14.853-20.019 34.164-30.161 53.234-30.161 17.673 0 32-14.327 32-32s-14.327-32-32-32c-43.223 0-80.231 23.139-104.632 56.027-10.531 14.193-7.561 34.236 6.632 44.766zM85.333 352c17.673 0 32-14.327 32-32 0-126.575 87.855-232.346 206.003-259.759l-11.576 19.294c-9.093 15.155-4.179 34.812 10.976 43.904s34.811 4.181 43.904-10.974l44.8-74.667c5.932-9.886 6.087-22.199 0.407-32.23-5.68-10.035-16.318-16.235-27.846-16.235-182.793 0-330.667 147.874-330.667 330.667 0 17.673 14.327 32 32 32zM612.151 890.433c5.683 10.033 16.32 16.234 27.849 16.234 182.793 0 330.667-147.874 330.667-330.667 0-17.673-14.327-32-32-32s-32 14.327-32 32c0 126.574-87.855 232.347-206.003 259.757l11.575-19.293c9.092-15.154 4.181-34.811-10.974-43.904s-34.812-4.179-43.904 10.976l-44.8 74.667c-5.931 9.886-6.089 22.198-0.41 32.23z" />
<glyph unicode="&#xe924;" glyph-name="lock" d="M821.359 757.281c-113.826 113.442-297.971 113.387-411.318 0.038l-0.055-0.055c-79.052-78.668-103.017-192.019-72.201-292.172 3.486-11.332 0.424-23.659-7.957-32.038l-200.32-200.32c-2.802-2.948-6.599-9.041-9.337-17.254-2.785-8.354-3.311-15.415-2.746-19.29l0.038-0.256 12.76-92.732c1.199-7.505 5.688-16.384 13.257-23.987 7.627-7.663 16.3-11.951 23.443-12.954l93.269-12.834c4.236-0.619 11.45-0.115 19.543 2.509 8.15 2.641 13.849 6.34 16.459 9.028l0.346 0.358 200.961 200.529c8.422 8.401 20.804 11.439 32.158 7.889 99.503-31.117 212.89-6.912 292.109 71.893 113.34 113.365 113.335 298.287-0.41 411.647zM364.814 802.601c138.388 138.357 362.973 138.293 501.721 0.011 138.837-138.366 138.837-363.884 0.465-502.252l-0.055-0.055c-91.593-91.149-220.753-122.423-337.485-92.979l-187.557-187.157c-11.874-12.139-27.629-20.318-42.437-25.118-14.901-4.83-32.16-7.309-48.361-4.979-0.049 0.009-0.099 0.017-0.149 0.021l-92.758 12.766c-23.569 3.273-44.571 15.629-60.077 31.206-15.514 15.586-27.653 36.484-31.194 59.661l-0.072 0.469-12.76 92.762c-0.007 0.047-0.014 0.094-0.021 0.141-2.384 16.563 0.5 33.98 5.381 48.623 4.902 14.707 12.981 30.106 24.249 41.711l0.333 0.346 187.342 187.337c-29.065 116.935 1.681 246.16 93.435 337.488zM271.346 236.386c12.497 12.497 32.758 12.497 45.255 0l98.133-98.133c12.495-12.497 12.495-32.755 0-45.252-12.497-12.497-32.758-12.497-45.255 0l-98.133 98.133c-12.497 12.497-12.497 32.755 0 45.252zM618.667 586.667c-17.673 0-32-14.327-32-32s14.327-32 32-32c17.673 0 32 14.327 32 32s-14.327 32-32 32zM522.667 554.667c0 53.019 42.982 96 96 96s96-42.981 96-96c0-53.018-42.982-96-96-96s-96 42.982-96 96z" />
<glyph unicode="&#xe925;" glyph-name="money" d="M452.774 614.833c-26.633 0-50.774-23.121-50.774-54.613 0-21.448 4.617-31.256 8.704-36.47 4.375-5.581 11.732-10.539 26.215-15.684l172.036-59.763c19.166-6.793 39.945-16.973 55.296-36.553 15.646-19.959 22.336-45.35 22.336-75.955 0-64.081-50.099-118.613-114.773-118.613h-107.093c-71.603 0-126.721 60.181-126.721 131.413 0 17.673 14.327 32 32 32s32-14.327 32-32c0-38.852 29.36-67.413 62.721-67.413h107.093c26.633 0 50.773 23.117 50.773 54.613 0 21.444-4.617 31.258-8.704 36.471-4.378 5.581-11.733 10.534-26.214 15.68l-172.040 59.763c-19.163 6.793-39.945 16.973-55.294 36.557-15.646 19.959-22.336 45.346-22.336 75.953 0 64.080 50.098 118.613 114.774 118.613h107.093c71.599 0 126.72-60.185 126.72-131.413 0-17.675-14.327-31.998-32-31.998s-32 14.323-32 31.998c0 38.851-29.363 67.413-62.72 67.413h-107.093zM512 736c17.673 0 32-14.327 32-32v-512c0-17.673-14.327-32-32-32s-32 14.327-32 32v512c0 17.673 14.327 32 32 32zM177.294 782.706c-39.063-39.063-59.961-103.195-59.961-206.706v-256c0-103.509 20.898-167.642 59.961-206.707 39.063-39.061 103.195-59.959 206.706-59.959h256c103.509 0 167.642 20.898 206.707 59.959 39.061 39.066 59.959 103.198 59.959 206.707v256c0 103.511-20.898 167.643-59.959 206.706-39.066 39.063-103.198 59.961-206.707 59.961h-256c-103.511 0-167.643-20.898-206.706-59.961zM132.039 827.961c56.937 56.937 142.138 78.706 251.961 78.706h256c109.824 0 195.025-21.769 251.959-78.706 56.939-56.937 78.707-142.138 78.707-251.961v-256c0-109.824-21.769-195.025-78.707-251.959-56.934-56.939-142.135-78.707-251.959-78.707h-256c-109.823 0-195.023 21.769-251.961 78.707-56.937 56.934-78.706 142.135-78.706 251.959v256c0 109.823 21.769 195.023 78.706 251.961z" />
<glyph unicode="&#xe926;" glyph-name="money-1" d="M146.36 741.777c-24.531-22.778-41.401-60.089-41.401-119.696v-219.734c0-43.102 8.833-74.415 22.646-96.794 13.572-21.995 33.263-37.534 59.244-47.262 8.018-2.906 16.194-5.239 24.285-6.532 0.66-0.107 1.317-0.235 1.969-0.38 14.3-3.217 30.226-4.766 47.589-4.766h375.040c51.413 0 89.37 12.86 114.334 36.036 24.529 22.78 41.399 60.087 41.399 119.697v219.734c0 17.533-1.839 32.995-4.578 48.737-7.795 38.967-25.404 64.467-49.079 80.829-24.444 16.891-58.487 26.166-102.076 26.166h-375.040c-51.415 0-89.372-12.858-114.333-36.035zM102.812 788.676c40.746 37.835 96.656 53.136 157.881 53.136h375.040c51.985 0 100.075-10.991 138.458-37.514 39.078-27.004 64.96-67.961 75.546-121.386l0.132-0.704c3.196-18.268 5.598-37.688 5.598-60.128v-219.734c0-71.808-20.676-128.363-61.854-166.596-40.747-37.833-96.653-53.137-157.879-53.137h-375.040c-20.698 0-41.132 1.805-60.675 6.11-12.817 2.133-24.725 5.67-35.167 9.468l-0.256 0.094c-37.955 14.174-69.635 38.298-91.453 73.655-21.601 35.004-32.181 78.788-32.181 130.406v219.734c0 71.806 20.677 128.361 61.852 166.595zM795.823 699.373c7.646 7.606 18.611 10.849 29.163 8.628 46.383-9.764 86.989-31.652 115.695-68.821 28.565-36.991 42.833-85.866 42.833-145.104v-219.733c0-71.808-20.676-128.363-61.854-166.596-40.747-37.837-96.653-53.137-157.879-53.137h-375.041c-34.258 0-66.855 4.599-96.13 15.684-61.669 22.848-103.45 71.027-117.87 143.625-2.109 10.62 1.295 21.589 9.047 29.146 7.752 7.561 18.801 10.688 29.364 8.307 14.299-3.217 30.226-4.762 47.589-4.762h375.041c51.413 0 89.37 12.86 114.334 36.036 24.529 22.775 41.399 60.087 41.399 119.697v219.732c0 18.219-1.549 33.954-4.467 48.182-2.167 10.565 1.131 21.51 8.777 29.116zM855.437 629.595c0.051-2.484 0.077-4.99 0.077-7.52v-219.732c0-71.808-20.676-128.363-61.854-166.596-40.747-37.837-96.653-53.137-157.879-53.137h-375.041c-2.669 0-5.334 0.030-7.994 0.090 14.094-25.801 35.281-42.479 62.185-52.425l0.251-0.094c20.186-7.659 44.718-11.571 73.557-11.571h375.041c51.413 0 89.37 12.86 114.334 36.036 24.529 22.775 41.399 60.087 41.399 119.697v219.733c0 49.134-11.759 83.032-29.487 105.987-9.216 11.934-20.727 21.797-34.59 29.533zM447.932 592.646c-44.534 0-80.639-36.105-80.639-80.642 0-44.535 36.105-80.64 80.639-80.64 44.54 0 80.644 36.105 80.644 80.64 0 44.537-36.105 80.642-80.644 80.642zM303.293 512.004c0 79.884 64.758 144.642 144.639 144.642 79.885 0 144.644-64.758 144.644-144.642 0-79.881-64.759-144.64-144.644-144.64-79.881 0-144.639 64.759-144.639 144.64zM203.947 637.867c17.673 0 32-14.327 32-32v-187.734c0-17.673-14.327-32-32-32s-32 14.327-32 32v187.734c0 17.673 14.327 32 32 32zM692.126 637.854c17.673 0 32-14.327 32-32v-187.734c0-17.673-14.327-32-32-32s-32 14.327-32 32v187.734c0 17.673 14.327 32 32 32z" />
<glyph unicode="&#xe927;" glyph-name="month" d="M341.333 906.667c17.673 0 32-14.327 32-32v-128c0-17.673-14.327-32-32-32s-32 14.327-32 32v128c0 17.673 14.327 32 32 32zM682.667 906.667c17.673 0 32-14.327 32-32v-128c0-17.673-14.327-32-32-32s-32 14.327-32 32v128c0 17.673 14.327 32 32 32zM117.333 572.161c0 17.673 14.327 32 32 32h725.333c17.673 0 32-14.327 32-32s-14.327-32-32-32h-725.333c-17.673 0-32 14.327-32 32zM202.116 730.225c-27.338-29.44-42.116-73.798-42.116-132.892v-362.667c0-59.093 14.778-103.45 42.116-132.894 26.939-29.009 70.65-48.439 139.217-48.439h341.333c68.565 0 112.277 19.43 139.217 48.439 27.337 29.444 42.116 73.801 42.116 132.894v362.667c0 59.095-14.78 103.452-42.116 132.892-26.94 29.012-70.652 48.441-139.217 48.441h-341.333c-68.567 0-112.278-19.43-139.217-48.441zM155.217 773.775c42.394 45.655 105.35 68.892 186.116 68.892h341.333c80.768 0 143.723-23.237 186.116-68.892 41.997-45.226 59.217-107.536 59.217-176.441v-362.667c0-68.907-17.22-131.217-59.217-176.439-42.394-45.658-105.348-68.894-186.116-68.894h-341.333c-80.766 0-143.722 23.236-186.116 68.894-41.996 45.222-59.217 107.533-59.217 176.439v362.667c0 68.905 17.222 131.215 59.217 176.441zM626.974 375.467c0 23.565 19.102 42.667 42.667 42.667h0.384c23.565 0 42.667-19.102 42.667-42.667s-19.102-42.667-42.667-42.667h-0.384c-23.565 0-42.667 19.102-42.667 42.667zM626.974 247.467c0 23.565 19.102 42.667 42.667 42.667h0.384c23.565 0 42.667-19.102 42.667-42.667s-19.102-42.667-42.667-42.667h-0.384c-23.565 0-42.667 19.102-42.667 42.667zM469.141 375.467c0 23.565 19.102 42.667 42.667 42.667h0.384c23.565 0 42.667-19.102 42.667-42.667s-19.102-42.667-42.667-42.667h-0.384c-23.565 0-42.667 19.102-42.667 42.667zM469.141 247.467c0 23.565 19.102 42.667 42.667 42.667h0.384c23.565 0 42.667-19.102 42.667-42.667s-19.102-42.667-42.667-42.667h-0.384c-23.565 0-42.667 19.102-42.667 42.667zM311.224 375.467c0 23.565 19.103 42.667 42.667 42.667h0.383c23.564 0 42.667-19.102 42.667-42.667s-19.102-42.667-42.667-42.667h-0.383c-23.564 0-42.667 19.102-42.667 42.667zM311.224 247.467c0 23.565 19.103 42.667 42.667 42.667h0.383c23.564 0 42.667-19.102 42.667-42.667s-19.102-42.667-42.667-42.667h-0.383c-23.564 0-42.667 19.102-42.667 42.667z" />
<glyph unicode="&#xe928;" glyph-name="night" d="M86.613 430.080c15.36-219.733 201.813-398.507 424.96-408.32 157.44-6.827 298.24 66.56 382.72 182.187 34.987 47.36 16.213 78.933-42.24 68.267-28.587-5.12-58.027-7.253-88.747-5.973-208.64 8.533-379.307 183.040-380.16 389.119-0.427 55.467 11.093 107.947 32 155.733 23.040 52.907-4.693 78.080-58.027 55.467-168.96-71.253-284.587-241.493-270.507-436.479z" />
<glyph unicode="&#xe929;" glyph-name="notes" d="M177.294 782.706c-39.063-39.063-59.961-103.195-59.961-206.706v-256c0-103.509 20.898-167.642 59.961-206.707 39.063-39.061 103.195-59.959 206.706-59.959h256c103.509 0 167.642 20.898 206.707 59.959 39.061 39.066 59.959 103.198 59.959 206.707v213.333c0 17.673 14.327 32 32 32s32-14.327 32-32v-213.333c0-109.824-21.769-195.025-78.707-251.959-56.934-56.939-142.135-78.707-251.959-78.707h-256c-109.823 0-195.023 21.769-251.961 78.707-56.937 56.934-78.706 142.135-78.706 251.959v256c0 109.823 21.769 195.023 78.706 251.961s142.138 78.706 251.961 78.706h213.333c17.673 0 32-14.327 32-32s-14.327-32-32-32h-213.333c-103.511 0-167.643-20.898-206.706-59.961zM585.088 904.23c11.955 4.953 25.719 2.215 34.871-6.937l341.333-341.333c9.152-9.152 11.891-22.917 6.938-34.872-4.954-11.959-16.623-19.755-29.564-19.755h-170.667c-65.771 0-119.804 10.547-155.959 46.705-36.16 36.157-46.707 90.188-46.707 155.961v170.667c0 12.943 7.795 24.611 19.755 29.564zM629.333 797.411v-93.412c0-62.227 10.786-93.529 27.959-110.706 17.178-17.177 48.478-27.961 110.707-27.961h93.41l-232.077 232.079zM266.667 405.333c0 17.673 14.327 32 32 32h256c17.673 0 32-14.327 32-32s-14.327-32-32-32h-256c-17.673 0-32 14.327-32 32zM266.667 234.667c0 17.673 14.327 32 32 32h170.667c17.673 0 32-14.327 32-32s-14.327-32-32-32h-170.667c-17.673 0-32 14.327-32 32z" />
<glyph unicode="&#xe92a;" glyph-name="chevron-left" d="M686.042 787.265c12.497-12.497 12.497-32.758 0-45.255l-278.188-278.185c-20.357-20.356-20.357-53.858 0-74.214l278.188-278.187c12.497-12.497 12.497-32.755 0-45.252s-32.759-12.497-45.257 0l-278.186 278.187c-45.35 45.35-45.35 119.369 0 164.719l278.186 278.188c12.497 12.497 32.759 12.497 45.257 0z" />
<glyph unicode="&#xe92b;" glyph-name="add-user" d="M512 416c-135.253 0-245.333 110.080-245.333 245.333s110.080 245.333 245.333 245.333c135.253 0 245.333-110.080 245.333-245.333s-110.080-245.333-245.333-245.333zM512 842.667c-99.84 0-181.333-81.493-181.333-181.333s81.493-181.333 181.333-181.333c99.84 0 181.333 81.493 181.333 181.333s-81.493 181.333-181.333 181.333zM145.5-10.667c-17.493 0-32 14.507-32 32 0 182.187 178.773 330.667 398.508 330.667 43.093 0 85.329-5.547 126.289-17.067 17.067-4.693 26.884-22.187 22.191-39.253s-22.187-26.88-39.253-22.187c-34.987 9.813-71.68 14.507-109.227 14.507-184.322 0-334.508-119.467-334.508-266.667 0-17.493-14.507-32-32-32zM768-10.667c-50.347 0-98.133 18.773-135.253 52.48-14.933 12.8-28.16 28.587-38.4 46.080-18.773 30.72-29.013 66.987-29.013 104.107 0 53.333 20.48 103.253 57.173 141.227 38.4 39.68 90.027 61.44 145.493 61.44 58.027 0 113.067-24.747 150.613-67.413 33.28-37.12 52.053-84.907 52.053-135.253 0-16.213-2.133-32.427-6.4-47.787-4.267-19.2-12.373-39.253-23.467-56.747-35.413-60.587-101.973-98.133-172.8-98.133zM768 330.667c-37.973 0-72.96-14.933-99.413-41.813-25.173-26.027-39.253-60.16-39.253-96.853 0-25.173 6.827-49.92 20.053-71.253 6.827-11.947 15.787-22.613 26.027-31.573 25.6-23.467 58.453-36.267 92.587-36.267 48.213 0 93.867 25.6 118.613 66.987 7.253 11.947 12.8 25.6 15.787 38.827 2.987 11.093 4.267 21.76 4.267 32.853 0 34.133-12.8 66.987-35.84 92.587-25.6 29.867-63.147 46.507-102.827 46.507zM831.991 160.853h-127.573c-17.493 0-32 14.507-32 32s14.507 32 32 32h127.573c17.493 0 32-14.507 32-32s-14.507-32-32-32zM768 95.573c-17.493 0-32 14.507-32 32v127.573c0 17.493 14.507 32 32 32s32-14.507 32-32v-127.573c0-17.92-14.507-32-32-32z" />
<glyph unicode="&#xe92c;" glyph-name="print" d="M313.988 864.553c28.765 30.682 71.462 42.114 123.345 42.114h149.333c51.883 0 94.579-11.432 123.345-42.114 28.352-30.243 36.655-72.388 36.655-117.886v-85.333c0-17.673-14.327-32-32-32h-405.333c-17.673 0-32 14.327-32 32v85.333c0 45.498 8.302 87.643 36.655 117.886zM360.678 820.78c-11.647-12.424-19.345-34.279-19.345-74.114v-53.333h341.333v53.333c0 39.835-7.697 61.69-19.345 74.114-11.234 11.985-32.538 21.886-76.655 21.886h-149.333c-44.117 0-65.42-9.902-76.655-21.886zM309.333 320c0 17.673 14.327 32 32 32h341.333c17.673 0 32-14.327 32-32v-170.667c0-47.599-11.921-89.178-41.374-118.626-29.449-29.453-71.027-41.374-118.626-41.374h-85.333c-47.599 0-89.176 11.921-118.627 41.374-29.451 29.449-41.373 71.027-41.373 118.626v170.667zM373.333 288v-138.667c0-37.734 9.412-60.156 22.627-73.374 13.216-13.214 35.638-22.626 73.373-22.626h85.333c37.734 0 60.156 9.412 73.374 22.626 13.214 13.218 22.626 35.639 22.626 73.374v138.667h-277.333zM182.627 606.706c-13.216-13.216-22.627-35.639-22.627-73.373v-213.333c0-37.734 9.412-60.156 22.627-73.374 13.216-13.214 35.639-22.626 73.373-22.626h53.333v96c0 17.673 14.327 32 32 32h341.333c17.673 0 32-14.327 32-32v-96h53.333c37.734 0 60.156 9.412 73.374 22.626 13.214 13.218 22.626 35.639 22.626 73.374v213.333c0 37.734-9.412 60.157-22.626 73.373-13.218 13.216-35.639 22.627-73.374 22.627h-512c-37.734 0-60.157-9.412-73.373-22.627zM137.373 651.961c29.451 29.451 71.028 41.373 118.627 41.373h512c47.599 0 89.178-11.921 118.626-41.373 29.453-29.451 41.374-71.028 41.374-118.627v-213.333c0-47.599-11.921-89.178-41.374-118.626-29.449-29.453-71.027-41.374-118.626-41.374h-85.333c-17.673 0-32 14.327-32 32v96h-277.333v-96c0-17.673-14.327-32-32-32h-85.333c-47.599 0-89.176 11.921-118.627 41.374-29.451 29.449-41.373 71.027-41.373 118.626v213.333c0 47.599 11.921 89.176 41.373 118.627zM266.667 320c0 17.673 14.327 32 32 32h426.667c17.673 0 32-14.327 32-32s-14.327-32-32-32h-426.667c-17.673 0-32 14.327-32 32zM266.667 490.667c0 17.673 14.327 32 32 32h128c17.673 0 32-14.327 32-32s-14.327-32-32-32h-128c-17.673 0-32 14.327-32 32z" />
<glyph unicode="&#xe92d;" glyph-name="qr" d="M277.333 842.667c-88.567 0-160-71.433-160-160v-106.667c0-17.673-14.327-32-32-32s-32 14.327-32 32v106.667c0 123.913 100.087 224 224 224h106.667c17.673 0 32-14.327 32-32s-14.327-32-32-32h-106.667zM608 874.667c0 17.673 14.327 32 32 32h106.667c123.913 0 224-100.087 224-224v-106.667c0-17.673-14.327-32-32-32s-32 14.327-32 32v106.667c0 88.567-71.433 160-160 160h-106.667c-17.673 0-32 14.327-32 32zM938.667 309.333c17.673 0 32-14.327 32-32v-64c0-123.913-100.087-224-224-224h-64c-17.673 0-32 14.327-32 32s14.327 32 32 32h64c88.567 0 160 71.433 160 160v64c0 17.673 14.327 32 32 32zM85.333 352c17.673 0 32-14.327 32-32v-106.667c0-88.567 71.433-160 160-160h106.667c17.673 0 32-14.327 32-32s-14.327-32-32-32h-106.667c-123.913 0-224 100.087-224 224v106.667c0 17.673 14.327 32 32 32zM273.294 686.706c-2.549-2.549-6.627-8.972-6.627-25.373v-85.333c0-16.401 4.079-22.824 6.627-25.373s8.972-6.627 25.373-6.627h85.333c16.401 0 22.824 4.079 25.373 6.627s6.627 8.972 6.627 25.373v85.333c0 16.401-4.079 22.824-6.627 25.373s-8.972 6.627-25.373 6.627h-85.333c-16.401 0-22.824-4.079-25.373-6.627zM228.039 731.961c18.784 18.784 44.361 25.373 70.627 25.373h85.333c26.266 0 51.844-6.588 70.626-25.373 18.786-18.784 25.374-44.361 25.374-70.627v-85.333c0-26.266-6.588-51.844-25.374-70.626-18.782-18.786-44.36-25.374-70.626-25.374h-85.333c-26.266 0-51.843 6.588-70.627 25.374-18.784 18.782-25.373 44.36-25.373 70.626v85.333c0 26.266 6.588 51.843 25.373 70.627zM614.626 686.706c-2.547-2.549-6.626-8.972-6.626-25.373v-85.333c0-16.401 4.079-22.824 6.626-25.373 2.551-2.549 8.973-6.627 25.374-6.627h85.333c16.401 0 22.822 4.079 25.374 6.627 2.547 2.549 6.626 8.972 6.626 25.373v85.333c0 16.401-4.079 22.824-6.626 25.373-2.551 2.549-8.973 6.627-25.374 6.627h-85.333c-16.401 0-22.822-4.079-25.374-6.627zM569.374 731.961c18.782 18.784 44.361 25.373 70.626 25.373h85.333c26.266 0 51.844-6.588 70.626-25.373 18.786-18.784 25.374-44.361 25.374-70.627v-85.333c0-26.266-6.588-51.844-25.374-70.626-18.782-18.786-44.361-25.374-70.626-25.374h-85.333c-26.266 0-51.844 6.588-70.626 25.374-18.786 18.782-25.374 44.36-25.374 70.626v85.333c0 26.266 6.588 51.843 25.374 70.627zM273.294 345.374c-2.549-2.551-6.627-8.973-6.627-25.374v-85.333c0-16.401 4.079-22.822 6.627-25.374 2.549-2.547 8.972-6.626 25.373-6.626h85.333c16.401 0 22.824 4.079 25.373 6.626 2.549 2.551 6.627 8.973 6.627 25.374v85.333c0 16.401-4.079 22.822-6.627 25.374-2.549 2.547-8.972 6.626-25.373 6.626h-85.333c-16.401 0-22.824-4.079-25.373-6.626zM228.039 390.626c18.784 18.786 44.361 25.374 70.627 25.374h85.333c26.266 0 51.844-6.588 70.626-25.374 18.786-18.782 25.374-44.361 25.374-70.626v-85.333c0-26.266-6.588-51.844-25.374-70.626-18.782-18.786-44.36-25.374-70.626-25.374h-85.333c-26.266 0-51.843 6.588-70.627 25.374-18.784 18.782-25.373 44.361-25.373 70.626v85.333c0 26.266 6.588 51.844 25.373 70.626zM614.626 345.374c-2.547-2.551-6.626-8.973-6.626-25.374v-85.333c0-16.401 4.079-22.822 6.626-25.374 2.551-2.547 8.973-6.626 25.374-6.626h85.333c16.401 0 22.822 4.079 25.374 6.626 2.547 2.551 6.626 8.973 6.626 25.374v85.333c0 16.401-4.079 22.822-6.626 25.374-2.551 2.547-8.973 6.626-25.374 6.626h-85.333c-16.401 0-22.822-4.079-25.374-6.626zM569.374 390.626c18.782 18.786 44.361 25.374 70.626 25.374h85.333c26.266 0 51.844-6.588 70.626-25.374 18.786-18.782 25.374-44.361 25.374-70.626v-85.333c0-26.266-6.588-51.844-25.374-70.626-18.782-18.786-44.361-25.374-70.626-25.374h-85.333c-26.266 0-51.844 6.588-70.626 25.374-18.786 18.782-25.374 44.361-25.374 70.626v85.333c0 26.266 6.588 51.844 25.374 70.626z" />
<glyph unicode="&#xe92e;" glyph-name="remove" d="M213.333 448c0 23.565 19.103 42.667 42.667 42.667h512c23.565 0 42.667-19.102 42.667-42.667s-19.102-42.667-42.667-42.667h-512c-23.564 0-42.667 19.102-42.667 42.667z" />
<glyph unicode="&#xe92f;" glyph-name="repeatable" d="M129.111 543.689c-52.82-211.346 75.852-425.763 287.198-478.58 211.347-52.821 425.764 75.849 478.581 287.198 0.841 3.358 1.634 6.72 2.381 10.078 3.844 17.25 20.941 28.122 38.191 24.277 17.25-3.84 28.122-20.941 24.282-38.191-0.87-3.895-1.788-7.791-2.761-11.682-61.393-245.641-310.554-395.162-556.192-333.773s-395.161 310.554-333.771 556.19c36.368 145.521 138.655 257.329 266.933 311.489 88.356 37.305 189.152 47.3 289.257 22.282 121.242-30.301 219.102-106.397 279.68-205.141 9.242-15.064 4.518-34.768-10.543-44.009-15.066-9.242-34.769-4.522-44.011 10.543-52.181 85.055-136.324 150.446-240.644 176.518-86.195 21.542-172.826 12.945-248.846-19.152-110.546-46.674-198.456-142.885-229.736-268.047zM496.213 671.573c17.673 0 32-14.327 32-32v-174.933c0-6.554 2.5-16.047 8.064-25.801 5.564-9.758 12.459-16.738 18.065-20.058l0.081-0.051 132.267-78.933c15.177-9.054 20.139-28.702 11.081-43.878-9.054-15.172-28.698-20.134-43.874-11.076l-132.181 78.882c-0.017 0.009-0.030 0.017-0.047 0.026-17.417 10.334-31.411 26.594-40.986 43.383-9.583 16.806-16.469 37.175-16.469 57.506v174.933c0 17.673 14.327 32 32 32zM747.49 682.298c4.518 14.636 20.045 22.838 34.679 18.321l98.773-30.486-6.967 103.136c-1.033 15.282 10.517 28.507 25.796 29.54 15.283 1.033 28.51-10.519 29.542-25.801l7.979-118.060c0.951-14.049-3.665-29.255-16.38-39.32-12.719-10.065-28.578-11.060-42.035-6.907l-113.067 34.897c-14.635 4.517-22.835 20.044-18.321 34.679z" />
<glyph unicode="&#xe930;" glyph-name="search" d="M490.667 842.667c-206.186 0-373.333-167.147-373.333-373.333s167.147-373.333 373.333-373.333c206.187 0 373.333 167.147 373.333 373.333s-167.147 373.333-373.333 373.333zM53.333 469.333c0 241.533 195.801 437.333 437.333 437.333s437.333-195.801 437.333-437.333c0-241.532-195.802-437.333-437.333-437.333s-437.333 195.802-437.333 437.333zM788.041 171.959c12.497 12.497 32.755 12.497 45.252 0l170.667-170.667c12.497-12.497 12.497-32.755 0-45.252s-32.755-12.497-45.252 0l-170.667 170.667c-12.497 12.497-12.497 32.755 0 45.252z" />
<glyph unicode="&#xe931;" glyph-name="time" d="M512 842.667c-217.847 0-394.667-176.82-394.667-394.667s176.82-394.667 394.667-394.667c217.847 0 394.667 176.819 394.667 394.667s-176.819 394.667-394.667 394.667zM53.333 448c0 253.193 205.474 458.667 458.667 458.667s458.667-205.474 458.667-458.667c0-253.193-205.474-458.667-458.667-458.667s-458.667 205.474-458.667 458.667zM496.213 671.573c17.673 0 32-14.327 32-32v-174.933c0-6.554 2.5-16.047 8.064-25.801 5.564-9.758 12.459-16.738 18.065-20.058l0.081-0.051 132.267-78.933c15.177-9.054 20.139-28.702 11.081-43.878-9.054-15.172-28.698-20.134-43.874-11.076l-132.181 78.882c-0.017 0.009-0.030 0.017-0.047 0.026-17.417 10.334-31.411 26.594-40.986 43.383-9.583 16.806-16.469 37.175-16.469 57.506v174.933c0 17.673 14.327 32 32 32z" />
<glyph unicode="&#xe932;" glyph-name="unblock" d="M577.515 367.642c14.054 10.709 34.133 7.996 44.847-6.063 17.801-23.369 28.305-52.762 28.305-84.245 0-76.553-62.114-138.667-138.667-138.667-44.71 0-84.48 21.769-109.716 54.135-10.867 13.939-8.377 34.048 5.56 44.915 13.938 10.863 34.046 8.375 44.913-5.564 14.016-17.975 35.682-29.487 59.243-29.487 41.207 0 74.667 33.459 74.667 74.667 0 17.156-5.713 32.986-15.215 45.457-10.709 14.059-7.996 34.138 6.063 44.851zM150.627 468.041c-21.824-21.824-33.294-62.477-33.294-148.041v-85.333c0-78.080 9.56-119.202 27.942-142.101 11.063-13.786 8.857-33.924-4.925-44.988s-33.923-8.858-44.986 4.924c-33.671 41.954-42.031 104.085-42.031 182.165v85.333c0 85.103 9.863 151.117 52.039 193.293 42.176 42.178 108.189 52.041 193.294 52.041h426.667c15.906 0 30.639-0.44 44.604-1.338 69.687-3.971 124.574-18.865 159.236-62.785 33.203-42.069 41.493-103.458 41.493-181.21v-85.333c0-85.103-9.865-151.117-52.041-193.293s-108.19-52.041-193.293-52.041h-426.667c-15.953 0-30.726 0.444-44.727 1.348-17.636 1.135-31.011 16.354-29.873 33.993 1.137 17.634 16.357 31.010 33.994 29.871 12.452-0.802 25.839-1.212 40.606-1.212h426.667c85.564 0 126.217 11.469 148.041 33.293s33.293 62.477 33.293 148.041v85.333c0 77.555-9.417 118.353-27.733 141.564-16.836 21.333-47.241 34.82-112.747 38.541l-0.247 0.013v0.004c-12.45 0.802-25.839 1.212-40.606 1.212h-426.667c-85.562 0-126.216-11.469-148.039-33.293zM328.92 779.552c-30.24-37.542-40.92-92.187-40.92-160.886v-85.333c0-17.673-14.327-32-32-32s-32 14.327-32 32v85.333c0 72.528 10.653 145.882 55.080 201.034 45.63 56.646 120.777 86.966 232.92 86.966 91.213 0 157.867-15.003 204.459-46.576 48.158-32.635 70.187-79.672 78.848-132.104 2.88-17.437-8.922-33.907-26.359-36.786s-33.907 8.922-36.787 26.359c-6.699 40.582-22.003 69.492-51.605 89.55-31.168 21.121-82.701 35.558-168.555 35.558-101.19 0-154.043-27.067-183.080-63.114zM961.293 897.294c12.497-12.497 12.497-32.758 0-45.255l-853.332-853.332c-12.497-12.497-32.758-12.497-45.255 0s-12.497 32.755 0 45.252l853.335 853.335c12.497 12.497 32.755 12.497 45.252 0z" />
<glyph unicode="&#xe933;" glyph-name="invisible" d="M512 568.748c-66.807 0-120.746-53.94-120.746-120.748 0-21.777 5.714-42.091 15.799-59.691l164.642 164.639c-17.604 10.085-37.918 15.799-59.695 15.799zM327.254 448c0 102.154 82.594 184.748 184.746 184.748 51.106 0 97.114-20.712 130.573-54.173 12.497-12.497 12.497-32.758 0-45.254l-215.893-215.893c-12.495-12.497-32.756-12.497-45.253 0-33.46 33.459-54.173 79.467-54.173 130.573zM96.32 575.703c102.013 160.357 251.5 257.151 415.68 257.151 95.983 0 187.968-33.434 267.588-93.492 14.11-10.643 16.922-30.708 6.281-44.817-10.645-14.109-30.711-16.92-44.817-6.278-69.713 52.582-148.395 80.588-229.052 80.588-137.039 0-268.293-80.691-361.693-227.522l-0.026-0.042c-15.129-23.701-23.773-57.629-23.773-93.504 0-35.87 8.644-69.798 23.773-93.504l0.015-0.021c32.161-50.479 69.401-93.696 109.504-128.183 13.399-11.524 14.92-31.731 3.396-45.129-11.523-13.402-31.727-14.921-45.127-3.396-45.23 38.895-86.497 86.989-121.75 142.319-23.261 36.454-33.812 83.157-33.812 127.915 0 44.762 10.551 91.462 33.813 127.917zM835.409 646.587c13.773 11.077 33.916 8.893 44.992-4.879 16.38-20.364 32.469-42.245 47.309-65.63 23.241-36.448 33.783-83.13 33.783-127.866 0-44.762-10.551-91.46-33.813-127.919-102.012-160.354-251.499-257.148-415.68-257.148-57.024 0-112.861 12.058-165.165 34.082-16.288 6.857-23.933 25.621-17.074 41.907 6.858 16.29 25.622 23.932 41.91 17.075 44.976-18.935 92.393-29.065 140.329-29.065 137.037 0 268.292 80.691 361.694 227.52l0.026 0.043c15.13 23.701 23.774 57.63 23.774 93.504 0 35.87-8.644 69.798-23.774 93.502l-0.047 0.071c-13.316 20.989-27.947 40.92-43.14 59.81-11.076 13.771-8.892 33.914 4.877 44.991zM667.563 449.6c17.382-3.204 28.873-19.891 25.668-37.269-13.5-73.212-72.777-132.489-145.988-145.988-17.378-3.204-34.065 8.286-37.274 25.668-3.204 17.378 8.29 34.065 25.668 37.269 47.113 8.687 85.965 47.543 94.652 94.656 3.209 17.378 19.895 28.873 37.274 25.664zM426.679 362.679c12.497-12.497 12.497-32.759 0-45.257l-318.719-318.72c-12.497-12.497-32.758-12.497-45.255 0s-12.497 32.759 0 45.257l318.72 318.72c12.497 12.497 32.758 12.497 45.254 0zM961.293 897.294c12.497-12.497 12.497-32.758 0-45.255l-318.72-318.719c-12.497-12.497-32.755-12.497-45.252 0-12.497 12.495-12.497 32.757 0 45.254l318.72 318.72c12.497 12.497 32.755 12.497 45.252 0z" />
<glyph unicode="&#xe934;" glyph-name="urgent-filled" d="M259.84 393.387h131.84v-307.2c0-71.68 38.827-86.187 86.187-32.427l322.987 366.933c39.68 44.8 23.040 81.92-37.12 81.92h-131.84v307.199c0 71.68-38.827 86.187-86.187 32.427l-322.987-366.932c-39.253-45.227-22.613-81.92 37.12-81.92z" />
<glyph unicode="&#xe935;" glyph-name="user" d="M512 842.667c-100.148 0-181.333-81.186-181.333-181.333s81.186-181.333 181.333-181.333c100.147 0 181.333 81.186 181.333 181.333s-81.186 181.333-181.333 181.333zM266.667 661.333c0 135.494 109.839 245.333 245.333 245.333 135.492 0 245.333-109.839 245.333-245.333 0-135.492-109.841-245.333-245.333-245.333-135.494 0-245.333 109.841-245.333 245.333zM113.493 21.333c0 188.625 185.051 330.667 398.507 330.667s398.507-142.042 398.507-330.667c0-17.673-14.327-32-32-32s-32 14.327-32 32c0 141.615-143.484 266.667-334.507 266.667s-334.507-125.052-334.507-266.667c0-17.673-14.327-32-32-32s-32 14.327-32 32z" />
<glyph unicode="&#xe936;" glyph-name="visible" d="M512 568.748c-66.807 0-120.748-53.94-120.748-120.748s53.94-120.747 120.748-120.747c66.807 0 120.747 53.939 120.747 120.747s-53.939 120.748-120.747 120.748zM327.252 448c0 102.154 82.594 184.748 184.748 184.748s184.747-82.594 184.747-184.748c0-102.153-82.594-184.747-184.747-184.747s-184.748 82.594-184.748 184.747zM96.32 576.131c102.013 160.357 251.5 257.15 415.68 257.15 164.186 0 313.681-96.802 415.693-257.172 23.253-36.452 33.801-83.143 33.801-127.896 0-44.749-10.547-91.443-33.801-127.893-102.012-160.371-251.507-257.173-415.693-257.173-164.188 0-313.681 96.802-415.694 257.173-23.252 36.45-33.8 83.145-33.8 127.893 0 44.762 10.551 91.462 33.813 127.918zM512 769.281c-137.039 0-268.293-80.691-361.693-227.522l-0.026-0.042c-15.129-23.701-23.773-57.63-23.773-93.504 0-35.87 8.644-69.798 23.773-93.5l0.027-0.043c93.4-146.833 224.654-227.524 361.693-227.524 137.037 0 268.292 80.691 361.694 227.524l0.026 0.043c15.13 23.701 23.774 57.63 23.774 93.5 0 35.874-8.644 69.803-23.774 93.504l-0.026 0.042c-93.402 146.831-224.657 227.522-361.694 227.522z" />
<glyph unicode="&#xe937;" glyph-name="blacklist" d="M512 416c-135.253 0-245.333 110.080-245.333 245.333s110.080 245.333 245.333 245.333c135.253 0 245.333-110.080 245.333-245.333s-110.080-245.333-245.333-245.333zM512 842.667c-99.84 0-181.333-81.493-181.333-181.333s81.493-181.333 181.333-181.333c99.84 0 181.333 81.493 181.333 181.333s-81.493 181.333-181.333 181.333zM145.5-10.667c-17.493 0-32 14.507-32 32 0 182.187 178.773 330.667 398.508 330.667 43.093 0 85.329-5.547 126.289-17.067 17.067-4.693 26.884-22.187 22.191-39.253s-22.187-26.88-39.253-22.187c-34.987 9.813-71.68 14.507-109.227 14.507-184.322 0-334.508-119.467-334.508-266.667 0-17.493-14.507-32-32-32zM768-10.667c-50.347 0-98.133 18.773-135.253 52.48-14.933 12.8-28.16 28.587-38.4 46.080-18.773 30.72-29.013 66.987-29.013 104.107 0 53.333 20.48 103.253 57.173 141.227 38.4 39.68 90.027 61.44 145.493 61.44 58.027 0 113.067-24.747 150.613-67.413 33.28-37.12 52.053-84.907 52.053-135.253 0-16.213-2.133-32.427-6.4-47.787-4.267-19.2-12.373-39.253-23.467-56.747-35.413-60.587-101.973-98.133-172.8-98.133zM768 330.667c-37.973 0-72.96-14.933-99.413-41.813-25.173-26.027-39.253-60.16-39.253-96.853 0-25.173 6.827-49.92 20.053-71.253 6.827-11.947 15.787-22.613 26.027-31.573 25.6-23.467 58.453-36.267 92.587-36.267 48.213 0 93.867 25.6 118.613 66.987 7.253 11.947 12.8 25.6 15.787 38.827 2.987 11.093 4.267 21.76 4.267 32.853 0 34.133-12.8 66.987-35.84 92.587-25.6 29.867-63.147 46.507-102.827 46.507zM721.916 115.204c-8.107 0-16.213 2.987-22.613 9.387-12.373 12.373-12.373 32.853 0 45.227l90.022 90.027c12.373 12.373 32.853 12.373 45.227 0s12.373-32.853 0-45.227l-90.022-90.027c-6.4-6.4-14.507-9.387-22.613-9.387zM813.231 114.351c-8.107 0-16.213 2.987-22.613 9.387l-90.027 90.027c-12.373 12.373-12.373 32.853 0 45.227s32.853 12.373 45.227 0l90.027-90.027c12.373-12.373 12.373-32.853 0-45.227-6.4-6.4-14.507-9.387-22.613-9.387z" />
<glyph unicode="&#xe938;" glyph-name="phone-number" d="M744.533-10.667c-48.213 0-98.987 11.52-151.467 33.707-51.2 21.76-102.827 51.627-153.173 87.893-49.92 36.693-98.133 77.653-143.787 122.453-45.227 45.653-86.187 93.867-122.453 143.36-36.693 51.2-66.133 102.4-87.040 151.893-22.187 52.907-33.28 104.107-33.28 152.32 0 33.28 5.973 64.853 17.493 94.293 11.947 30.293 31.147 58.453 57.173 82.773 32.853 32.427 70.4 48.64 110.507 48.64 16.64 0 33.707-3.84 48.213-10.667 16.64-7.68 30.72-19.2 40.96-34.56l98.987-139.52c8.96-12.373 15.787-24.32 20.48-36.267 5.547-12.8 8.533-25.6 8.533-37.973 0-16.213-4.693-32-13.653-46.933-6.4-11.52-16.213-23.893-28.587-36.267l-29.013-30.293c0.427-1.28 0.853-2.133 1.28-2.987 5.12-8.96 15.36-24.32 34.987-47.36 20.907-23.893 40.533-45.653 60.16-65.707 25.173-24.747 46.080-44.373 65.707-60.587 24.32-20.48 40.107-30.72 49.493-35.413h3.84l26.453 28.587c13.227 13.227 26.027 23.040 38.4 29.44 23.467 14.507 53.333 17.067 83.2 4.693 11.093-4.693 23.040-11.093 35.84-20.053l141.653-100.693c15.787-10.667 27.307-24.32 34.133-40.533 6.4-16.213 9.387-31.147 9.387-46.080 0-20.48-4.693-40.96-13.653-60.16s-20.053-35.84-34.133-51.2c-24.32-26.88-50.773-46.080-81.493-58.453-29.44-11.947-61.44-18.347-95.147-18.347zM238.507 842.667c-23.467 0-45.227-10.24-66.133-30.72-19.627-18.347-33.28-38.4-41.813-60.16-8.96-22.187-13.227-45.653-13.227-70.827 0-39.68 9.387-82.773 28.16-127.147 19.2-45.227 46.080-92.16 80.213-139.093s72.96-92.587 115.627-135.68c42.667-42.24 88.747-81.493 136.107-116.053 46.080-33.707 93.44-61.013 140.373-80.64 72.96-31.147 141.227-38.4 197.547-14.933 21.76 8.96 40.96 22.613 58.453 42.24 9.813 10.667 17.493 22.187 23.893 35.84 5.12 10.667 7.68 21.76 7.68 32.853 0 6.827-1.28 13.653-4.693 21.333-1.28 2.56-3.84 7.253-11.947 12.8l-141.653 100.693c-8.533 5.973-16.213 10.24-23.467 13.227-9.387 3.84-13.227 7.68-27.733-1.28-8.533-4.267-16.213-10.667-24.747-19.2l-32.427-32c-16.64-16.213-42.24-20.053-61.867-12.8l-11.52 5.12c-17.493 9.387-37.973 23.893-60.587 43.093-20.48 17.493-42.667 37.973-69.547 64.427-20.907 21.333-41.813 43.947-63.573 69.12-20.053 23.467-34.56 43.52-43.52 60.16l-5.12 12.8c-2.56 9.813-3.413 15.36-3.413 21.333 0 15.36 5.547 29.013 16.213 39.68l32 33.28c8.533 8.533 14.933 16.64 19.2 23.893 3.413 5.547 4.693 10.24 4.693 14.507 0 3.413-1.28 8.533-3.413 13.653-2.987 6.827-7.68 14.507-13.653 22.613l-98.987 139.947c-4.267 5.973-9.387 10.24-15.787 13.227-6.827 2.987-14.080 4.693-21.333 4.693z" />
<glyph unicode="&#xe939;" glyph-name="important-filled" d="M899.413 302.080v291.839c0 48.213-25.6 92.162-66.987 116.482l-253.44 146.346c-41.813 23.893-93.013 23.893-134.4 0l-253.441-146.346c-41.387-24.32-66.987-68.695-66.987-116.482v-291.839c0-48.213 25.6-92.587 66.987-116.48l253.441-146.347c41.813-23.893 93.013-23.893 134.4 0l253.44 146.347c41.387 24.32 66.987 68.693 66.987 116.48zM512 650.667c17.673 0 32-14.327 32-32v-224c0-17.673-14.327-32-32-32s-32 14.327-32 32v224c0 17.673 14.327 32 32 32zM512 300.8c23.565 0 42.667-19.102 42.667-42.667v-4.262c0-23.565-19.102-42.667-42.667-42.667s-42.667 19.102-42.667 42.667v4.262c0 23.565 19.102 42.667 42.667 42.667z" />
<glyph unicode="&#xe93a;" glyph-name="warning-filled" d="M253.44 46.507h258.56v-0.427h258.56c147.627 0 209.92 105.813 138.24 235.093l-258.56 465.492c-75.947 136.96-200.533 136.96-276.48 0l-125.44-225.279-133.12-239.787c-71.68-129.28-9.813-235.093 138.24-235.093zM512 608c17.673 0 32-14.327 32-32v-213.333c0-17.673-14.327-32-32-32s-32 14.327-32 32v213.333c0 17.673 14.327 32 32 32zM469.099 234.667c0 23.565 19.102 42.667 42.667 42.667h0.384c23.565 0 42.667-19.102 42.667-42.667s-19.102-42.667-42.667-42.667h-0.384c-23.565 0-42.667 19.102-42.667 42.667z" />
<glyph unicode="&#xe93b;" glyph-name="week" d="M341.333 906.667c17.673 0 32-14.327 32-32v-128c0-17.673-14.327-32-32-32s-32 14.327-32 32v128c0 17.673 14.327 32 32 32zM682.667 906.667c17.673 0 32-14.327 32-32v-128c0-17.673-14.327-32-32-32s-32 14.327-32 32v128c0 17.673 14.327 32 32 32zM117.333 572.161c0 17.673 14.327 32 32 32h725.333c17.673 0 32-14.327 32-32s-14.327-32-32-32h-725.333c-17.673 0-32 14.327-32 32zM202.116 730.225c-27.338-29.44-42.116-73.798-42.116-132.892v-362.667c0-59.093 14.778-103.45 42.116-132.894 26.939-29.009 70.65-48.439 139.217-48.439h341.333c68.565 0 112.277 19.43 139.217 48.439 27.337 29.444 42.116 73.801 42.116 132.894v362.667c0 59.095-14.78 103.452-42.116 132.892-26.94 29.012-70.652 48.441-139.217 48.441h-341.333c-68.567 0-112.278-19.43-139.217-48.441zM155.217 773.775c42.394 45.655 105.35 68.892 186.116 68.892h341.333c80.768 0 143.723-23.237 186.116-68.892 41.997-45.226 59.217-107.536 59.217-176.441v-362.667c0-68.907-17.22-131.217-59.217-176.439-42.394-45.658-105.348-68.894-186.116-68.894h-341.333c-80.766 0-143.722 23.236-186.116 68.894-41.996 45.222-59.217 107.533-59.217 176.439v362.667c0 68.905 17.222 131.215 59.217 176.441zM469.141 375.467c0 23.565 19.102 42.667 42.667 42.667h0.384c23.565 0 42.667-19.102 42.667-42.667s-19.102-42.667-42.667-42.667h-0.384c-23.565 0-42.667 19.102-42.667 42.667zM311.224 375.467c0 23.565 19.103 42.667 42.667 42.667h0.383c23.564 0 42.667-19.102 42.667-42.667s-19.102-42.667-42.667-42.667h-0.383c-23.564 0-42.667 19.102-42.667 42.667zM311.224 247.467c0 23.565 19.103 42.667 42.667 42.667h0.383c23.564 0 42.667-19.102 42.667-42.667s-19.102-42.667-42.667-42.667h-0.383c-23.564 0-42.667 19.102-42.667 42.667z" />
<glyph unicode="&#xe93c;" glyph-name="important" d="M563.051 828.996c-32.013 18.268-71.049 18.175-102.464 0.038l-253.325-146.279c-31.656-18.647-51.103-52.554-51.103-88.836v-291.839c0-36.847 19.558-70.626 50.987-88.768l253.377-146.313c32.013-18.266 71.049-18.172 102.464-0.034v0l253.329 146.278c31.65 18.65 51.098 52.557 51.098 88.836v291.839c0 36.652-19.396 70.161-51.102 88.836l-253.261 146.241zM428.587 884.46c51.337 29.638 114.675 29.556 166.276 0.070l0.128-0.072 253.649-146.468c51.012-29.976 82.773-84.334 82.773-144.072v-291.839c0-59.255-31.714-114.065-82.773-144.073l-0.209-0.124-253.44-146.342c-51.341-29.641-114.679-29.559-166.281-0.073l-0.128 0.073-253.436 146.342c-51.345 29.645-82.988 84.617-82.988 144.196v291.839c0 59.255 31.714 114.066 82.775 144.071l0.21 0.123 253.443 146.347zM512 650.667c17.673 0 32-14.327 32-32v-224c0-17.673-14.327-32-32-32s-32 14.327-32 32v224c0 17.673 14.327 32 32 32zM512 300.8c23.565 0 42.667-19.102 42.667-42.667v-4.262c0-23.565-19.102-42.667-42.667-42.667s-42.667 19.102-42.667 42.667v4.262c0 23.565 19.102 42.667 42.667 42.667z" />
<glyph unicode="&#xe93d;" glyph-name="urgent" d="M654.66 864.899c-6.588 15.943-18.231 31.133-36.851 38.124-18.607 6.985-37.363 3.227-52.809-4.392-15.313-7.552-29.828-19.944-43.315-35.249l-323.132-367.101c-22.077-25.438-38.259-59.631-23.539-92.105 14.752-32.55 51.183-42.79 84.826-42.79h99.84v-275.2c0-20.412 2.708-39.3 9.232-55.087 6.588-15.945 18.231-31.134 36.854-38.127 18.605-6.985 37.361-3.226 52.806 4.395 15.313 7.552 29.828 19.942 43.315 35.247l322.952 366.895c22.366 25.267 38.797 59.477 24.055 92.113-14.733 32.623-51.281 42.99-85.163 42.99h-99.84v275.2c0 20.41-2.709 39.299-9.233 55.087zM569.728 821.096c10.193 11.568 18.295 17.53 23.582 20.137 0.58 0.286 1.092 0.518 1.54 0.704 0.205-0.42 0.427-0.91 0.661-1.479 2.236-5.412 4.382-15.216 4.382-30.646v-307.199c0-17.673 14.327-32 32-32h131.84c12.032 0 19.61-1.894 23.757-3.742 1.553-0.691 2.445-1.276 2.918-1.655-0.030-0.597-0.179-1.63-0.678-3.213-1.348-4.279-4.915-11.157-12.83-20.092l-0.068-0.077-322.978-366.925c-10.193-11.571-18.3-17.536-23.59-20.143-0.58-0.29-1.092-0.521-1.54-0.708-0.205 0.422-0.427 0.913-0.661 1.481-2.237 5.41-4.382 15.215-4.382 30.647v307.2c0 17.673-14.327 32-32 32h-131.84c-11.942 0-19.446 1.873-23.543 3.691-1.501 0.666-2.371 1.233-2.839 1.6 0.028 0.61 0.173 1.673 0.677 3.307 1.338 4.331 4.871 11.251 12.685 20.271l322.908 366.841z" />
</font>
</defs>
</svg>
